<?xml version="1.0" encoding="UTF-8"?><svg id="Layer_2" xmlns="http://www.w3.org/2000/svg" viewBox="0 0 100.04 100"><defs><style>.cls-1{fill:#ef6461;}</style></defs><g id="Layer_1-2"><path class="cls-1" d="m12.72,30.95c-.43,1.07-1.48,1.7-2.58,1.7-.52,0-1.06-.14-1.55-.45-1.96-1.21-3.92-2.42-5.97-3.46-.22-.1-.42-.09-.63.02-.63.33-1.27.61-1.88.97-.04.02-.07.05-.11.08v-5.17c.09.03.19.05.29.07-.04-.16-.06-.28-.16-.41-.05-.06-.09-.12-.13-.19v-3.07c.26.43.53.86.77,1.3.36.61.53,1.32.95,1.9.04-.01.05-.01.09-.02.06-.93-.07-1.88-.08-2.82-.02-.51-.17-.99-.41-1.45-.45-.69.66-1.5,1.04-.66.91,1.88.94,3.27,1.03,5.28.03.42.23.72.67.86,1.95.72,4.32,1.25,6.59,1.76,1.71.39,2.7,2.18,2.07,3.76Z"/><path class="cls-1" d="m3.82,29.88c.45.54.3.97.06,1.53-.1.25-.23.46-.4.64-.12.13-.25.24-.39.33-.51.34-1.17.47-1.84.41-.21,0-.4-.05-.42-.31,0-.06,0-.13.01-.18.04-.16.16-.28.34-.31.05,0,.09-.02.14-.02.16-.02.33-.04.5-.06h0c.06,0,.11-.01.17-.02.14-.02.3-.1.46-.22.27-.2.52-.51.56-.73,0-.27-.1-.56-.1-.83-.06-.5.66-.59.9-.21Z"/><path class="cls-1" d="m5.8,21.63c.52.43.84.93.98,1.45.05.17.07.33.08.5.02.6-.2,1.18-.65,1.63-.34.19-.73.49-1.09.15-.61-.58.6-.86.71-1.36.11-.45.09-.74-.04-1.01-.03-.06-.06-.12-.1-.18h0c-.12-.19-.29-.38-.49-.62-.02-.03-.04-.06-.05-.09-.09-.19-.03-.39.1-.52.14-.13.37-.17.56.05Z"/><path class="cls-1" d="m0,33.49v-1.04c.08.05.14.12.19.18.16.26.02.59-.19.86Z"/><path class="cls-1" d="m1.84,17.56c-.34.17-.67-.31-.79-.62-.1-.3-.32-.41-.6-.5-.17-.06-.32-.08-.45-.08v-.92c.33,0,.67.06,1.04.2.54.25.95.65,1.11,1.26.07.29-.05.55-.31.66Z"/><path class="cls-1" d="m3.27,17.81c.4.04.78.18,1.11.41,0,0,0,0,0,0,.13.09.25.19.35.29.6.57.88,1.34.54,2.16-.07.17-.19.27-.35.31-.06.01-.12.02-.19.02-.12,0-.21-.04-.27-.08-.31-.23-.03-.88-.06-1.23-.01-.03-.02-.06-.04-.09,0,0,0,0,0,0-.05-.12-.11-.23-.18-.32-.7-1-2.01-.34-1.98-1.23.02-.22.13-.32.43-.3.22.01.43.03.63.05Z"/><path class="cls-1" d="m17.88,46.05c-1.62.31-2.68.05-4.22-.28-.33-.06-.6.02-.79.33-.94,1.34-1.82,3.03-2.67,4.65-.64,1.23-2.2,1.62-3.28.82h0c-1.08-.81-1.14-2.44-.12-3.4,1.32-1.24,2.63-2.49,3.84-3.84.12-.14.16-.3.11-.48-.12-.54-.21-1.09-.36-1.62-.3-.87-.71-1.71-1.03-2.57-.1-.31-.11-.78.24-.87.29-.11.54-.05.67.22.53,1.12.99,2.28,1.44,3.43h.08c.13-1.17.19-2.33.53-3.47.1-.36.07-.76.08-1.14.02-.43.15-.6.56-.72.23-.06.37.01.44.24.04.78.08,1.6-.09,2.38-.22.88-.44,1.78-.35,2.68l.06.02c.58-.73,1.16-1.46,1.88-2.07.5-.47.92-1.05,1.49-1.44.31-.21,1.13.2.83.63-1.11,1.19-2.34,2.34-3.05,3.83.14,0,.23,0,.35-.04.95-.39,1.95-.52,2.95-.65.33-.04.67-.05,1-.04.26,0,.35.15.33.42-.03.42-.1.55-.51.58-.83.06-1.6.37-2.4.58-.54.15-1.11.14-1.64.34v.07c.7.23,1.44.33,2.16.51.39.09.79.07,1.18-.02.61-.2,1.01.81.29.93Z"/><path class="cls-1" d="m9.53,45.03c-.5.23-.8.03-1.17-.26-.17-.12-.3-.27-.4-.43-.07-.12-.13-.24-.17-.37-.15-.46-.12-.99.05-1.48.04-.16.12-.29.32-.26.05,0,.1.03.14.05.12.06.18.18.17.32,0,.04,0,.07-.01.11-.01.13-.04.26-.05.39h0s-.01.09-.02.13c-.01.11.02.25.08.4.1.25.28.5.44.57.21.05.44.04.66.09.39.05.32.62-.02.73Z"/><path class="cls-1" d="m15.41,48.2c-.43.31-.88.45-1.3.46-.14,0-.27-.01-.39-.04-.46-.1-.85-.39-1.11-.83-.07-.3-.22-.66.11-.86.57-.34.54.63.9.81.32.18.54.22.77.18.05,0,.11-.02.16-.04h0c.17-.05.35-.14.57-.25.03-.01.05-.02.08-.02.16-.03.31.06.37.18.07.14.05.31-.15.42Z"/><path class="cls-1" d="m20.38,39.57c-.25.37-.89.19-.69-.32.08-.32.32-.54.14-.87-.22-.59-.54-.64-1.08-.84-.17-.07-.23-.2-.21-.38.01-.57,1.13-.07,1.32.07.74.56,1.1,1.53.52,2.33Z"/><path class="cls-1" d="m17.74,36.55c-.71.39-.53-1.1-1.88-.92-.27.15-.71.66-.97.34-.14-.16-.13-.4.01-.58.42-.52,1.15-.68,1.82-.41.4.06,1.53,1.26,1.02,1.57Z"/><path class="cls-1" d="m9.16,37.09c-.07.2.01.46-.01.67,0,.5-.63.49-.75.11-.44-1.38,1.21-2.45,2.36-2.13.14.02.24.1.22.27-.11.82-1.14-.12-1.81,1.09Z"/><path class="cls-1" d="m8.36,41.59c-.06.06-.13.1-.19.12-.35.11-.68-.37-.84-.65-.15-.32-.17-.67-.07-1.04.03-.11.07-.22.12-.33.02-.06.05-.11.08-.17.13-.25.32-.47.55-.63.14-.1.31-.22.48-.33.12-.08.24-.03.32.09.27.43-.3.65-.54.91-.11.1-.22.34-.27.58-.04.2-.05.39,0,.51.02.05.06.1.1.15.18.21.45.43.35.68-.02.04-.04.08-.08.12Z"/><path class="cls-1" d="m20.92,45.78c-.29.36-.68.59-1.18.59-.23,0-.41-.15-.43-.37-.06-.29.37-.45.63-.48.24-.01.38-.16.49-.35.35-.53.19-.82.08-1.37-.03-.17.03-.3.19-.39.18-.1.31-.08.39.1.36.73.39,1.47-.17,2.27Z"/><path class="cls-1" d="m14.28,35.75c-.59.56-.83-.93-2.06-.42-.24.21-.55.82-.89.55-.53-.48.36-1.26.87-1.35.8-.21,1.57.15,2.06.8.1.12.18.26.03.42Z"/><path class="cls-1" d="m18.83,47.04c-.11.29-.3.56-.54.76,0,0,0,0,0,0-.09.08-.19.15-.29.21-.56.34-1.19.4-1.75-.03-.12-.08-.17-.2-.17-.33,0-.05,0-.1.02-.15.03-.09.07-.15.12-.19.24-.19.67.16.95.2.03,0,.05,0,.07,0,0,0,0,0,0,0,.1-.02.19-.04.28-.07.9-.33.67-1.46,1.33-1.26.16.06.22.17.14.39-.05.16-.11.32-.17.47Z"/><path class="cls-1" d="m21.38,42.94c-.24.29-.85.09-.68-.3.1-.23.28-.43.38-.66.08-.3-.15-.87-.41-1.04-.25-.19-.78-.35-.59-.76.07-.15.18-.23.33-.16,1.16.3,2.04,1.83.97,2.93Z"/><path class="cls-1" d="m5.23,62.5c-.26.16-.54.23-.82.23-.67,0-1.32-.41-1.59-1.1-.49-1.27-.99-2.54-1.6-3.76-.06-.13-.16-.19-.3-.22-.3-.04-.61-.11-.92-.16v-.91h.2s.01-.03.02-.06c-.07-.04-.15-.08-.22-.12v-.91c.17.09.35.16.54.21t.03-.04c-.2-.35-.39-.69-.57-1.05v-2.12c.43.94.86,1.88,1.55,2.64.04-.09.07-.15.07-.25,0-.77.19-1.51.38-2.24.07-.24.15-.48.25-.71.08-.18.2-.2.39-.11.28.14.35.22.26.52-.19.6-.19,1.22-.28,1.84-.05.41-.21.81-.22,1.24t.05.02c.36-.43.63-.92.96-1.37.17-.25.27-.53.32-.83.03-.49.85-.48.73.05-.24,1.22-.72,1.89-1.39,2.87-.13.21-.15.43.01.65.67,1.04,1.61,2.13,2.5,3.18.68.79.51,1.99-.35,2.51Z"/><path class="cls-1" d="m1.39,58.83c.02.42-.2.57-.51.75-.14.08-.28.13-.42.16-.1.02-.2.02-.3.02-.05,0-.11-.01-.16-.02v-.56s.07.01.11.01c.2,0,.43-.05.53-.15.09-.13.15-.3.25-.43.15-.26.52-.04.5.22Z"/><path class="cls-1" d="m5.26,55.63c.09.39.07.74-.05,1.04-.04.09-.08.18-.14.26-.2.29-.51.49-.89.54-.23-.03-.52-.03-.57-.32-.08-.49.59-.2.82-.4.21-.17.3-.32.34-.49,0-.04.01-.08.02-.12h0c0-.13,0-.28-.01-.47,0-.02,0-.04,0-.06.02-.12.13-.2.23-.21.12-.01.23.05.25.22Z"/><path class="cls-1" d="m.22,50.12c-.09-.06-.15-.14-.22-.21v-.66c.25.06.48.22.64.48.19.27-.12.67-.42.39Z"/><path class="cls-1" d="m5.13,51.1c.17.31.22.64.08.99-.07.16-.22.24-.38.2-.22-.04-.21-.38-.16-.57.06-.17,0-.31-.11-.45-.27-.4-.52-.36-.93-.44-.12-.03-.2-.11-.22-.24-.02-.15.03-.24.18-.25.61-.04,1.14.15,1.54.76Z"/><path class="cls-1" d="m5.42,52.91c.17.16.31.36.38.59,0,0,0,0,0,0,.03.09.05.18.07.26.08.49-.06.95-.51,1.21-.09.06-.19.06-.28.02-.03-.01-.06-.03-.1-.06-.06-.05-.09-.09-.1-.14-.07-.22.3-.43.41-.6,0-.02,0-.04.01-.05,0,0,0,0,0,0,.02-.08.03-.15.03-.21.02-.72-.83-.88-.5-1.29.08-.1.18-.1.31,0,.1.08.19.17.28.25Z"/><path class="cls-1" d="m3.27,49.98c.14.25-.18.62-.4.39-.13-.13-.22-.32-.35-.45-.19-.14-.65-.14-.84,0-.2.12-.46.45-.7.19-.09-.09-.11-.19-.02-.28.54-.72,1.85-.9,2.32.15Z"/><path class="cls-1" d="m9.32,86.98c-.4.23-.84.34-1.28.34-1.1,0-2.17-.7-2.59-1.85-.75-2.07-1.52-4.15-2.46-6.15-.1-.21-.25-.32-.48-.36-.67-.12-1.33-.29-1.99-.38-.17,0-.35-.02-.52-.02v-1.4c.46,0,.93.02,1.39.03.01-.05.01-.04.02-.1-.47-.26-.94-.52-1.41-.78v-1.58c.61.44,1.25.83,1.97,1.05t.04-.06c-.53-1-1.07-2-1.41-3.1-.18-.48-.41-.95-.6-1.43v-1.53c.26-.23.62-.33.81-.03.8,1.82,1.5,3.75,2.82,5.27.07-.15.11-.25.12-.41.02-1.25.36-2.44.7-3.62.11-.39.26-.77.43-1.13.14-.3.34-.33.63-.17.46.24.57.38.4.85-.33.96-.35,1.98-.51,2.97-.09.67-.38,1.31-.41,2t.08.03c.6-.67,1.06-1.46,1.61-2.17.29-.4.46-.85.54-1.34.08-.79,1.4-.74,1.19.12-.44,1.96-1.23,3.02-2.35,4.59-.23.34-.26.68-.01,1.06,1.04,1.7,2.52,3.5,3.93,5.23,1.07,1.31.75,3.25-.66,4.07Z"/><path class="cls-1" d="m3.23,80.89c.02.67-.35.92-.86,1.19-.22.13-.44.21-.67.25-.17.02-.33.03-.5.02-.42-.04-.83-.2-1.2-.45v-.97s.07.03.11.05c.14.08.28.17.41.25.05.03.1.06.14.09.12.07.3.1.49.1.33.01.69-.07.85-.21.16-.21.26-.48.42-.69.25-.42.85-.06.81.37Z"/><path class="cls-1" d="m9.62,75.83c.14.63.08,1.21-.12,1.68-.06.15-.14.29-.24.42-.34.47-.85.77-1.46.84-.37-.06-.84-.07-.92-.53-.11-.8.96-.3,1.34-.61.35-.27.5-.51.57-.78.02-.06.03-.13.03-.2h0c.02-.21,0-.46,0-.76,0-.04,0-.07.01-.1.04-.19.21-.31.38-.33.19-.02.38.09.39.37Z"/><path class="cls-1" d="m1.66,66.72c-.32-.25-.45-.62-.91-.57-.33-.02-.56.03-.75.15v-.96c.87-.29,1.83-.1,2.34.76.3.46-.21,1.09-.68.62Z"/><path class="cls-1" d="m9.57,68.49c.26.5.33,1.05.09,1.61-.11.26-.36.39-.62.31-.36-.07-.33-.63-.23-.94.1-.28,0-.5-.16-.73-.43-.65-.83-.61-1.5-.75-.2-.05-.32-.18-.34-.4-.02-.25.06-.38.3-.39.99-.04,1.84.28,2.46,1.29Z"/><path class="cls-1" d="m9.97,71.45c.28.27.48.6.6.97,0,0,0,0,0,0,.04.14.08.29.1.43.12.79-.13,1.53-.87,1.95-.15.09-.3.09-.45.03-.05-.02-.1-.06-.15-.1-.09-.08-.14-.15-.16-.23-.1-.36.5-.68.68-.96,0-.03.02-.06.03-.09,0,0,0,0,0,0,.03-.12.05-.24.06-.34.06-1.17-1.31-1.45-.77-2.1.14-.16.29-.16.5.03.16.14.31.28.44.41Z"/><path class="cls-1" d="m6.6,66.6c.21.41-.31,1-.67.61-.21-.22-.35-.52-.56-.74-.3-.23-1.05-.25-1.37-.04-.34.19-.77.71-1.14.29-.14-.15-.17-.31-.02-.45.9-1.15,3.03-1.4,3.75.33Z"/><path class="cls-1" d="m6.36,96.35c-.9.91-1.68,1.22-2.82,1.69-.24.11-.37.28-.36.57,0,.44.02.91.06,1.39H.75c.09-.51.17-1.02.23-1.53.01-.15-.04-.26-.15-.36-.27-.26-.54-.54-.83-.78v-1.1c.28.18.55.36.83.54l.04-.04c-.29-.55-.61-1.08-.87-1.64v-1.86c.25.35.48.71.65,1.11.25.66.51,1.33.96,1.87t.05-.02c.05-.72.09-1.44.28-2.15.11-.52.12-1.07.31-1.57.11-.28.81-.37.81.03-.18,1.25-.45,2.53-.25,3.79.09-.06.15-.1.2-.18.44-.67,1.02-1.19,1.6-1.72.19-.17.4-.33.62-.47.17-.11.28-.06.39.12.17.29.18.4-.07.6-.5.41-.86.95-1.27,1.43-.28.34-.65.58-.9.94t.03.05c.55-.16,1.07-.43,1.6-.63.29-.12.54-.31.75-.54.3-.4,1,.07.6.46Z"/><path class="cls-1" d="m.57,99.4c-.15.26-.34.34-.57.35v-.69c.08-.05.17-.1.26-.14.28-.14.48.25.31.48Z"/><path class="cls-1" d="m5.73,98.82c-.14.39-.36.68-.63.87-.09.06-.18.11-.27.15-.34.14-.72.13-1.07-.04-.18-.16-.43-.32-.31-.6.21-.47.62.16.93.12.28-.03.44-.1.57-.23.03-.03.06-.06.08-.1h0c.08-.11.16-.24.25-.41.01-.02.03-.04.04-.05.09-.09.22-.1.32-.05.11.05.17.18.09.33Z"/><path class="cls-1" d="m5.08,91.11c0,.35-.48.52-.58.1-.09-.24-.03-.49-.29-.62-.41-.28-.63-.17-1.06-.05-.14.03-.24-.03-.3-.15-.24-.37.69-.54.87-.54.72.03,1.38.49,1.36,1.26Z"/><path class="cls-1" d="m2.06,90.35c-.29.57-.83-.47-1.61.25-.1.22-.16.72-.45.65v-1.03c.18-.2.43-.36.72-.42.28-.13,1.53.13,1.34.55Z"/><path class="cls-1" d="m8.18,94.83c-.03.36-.18.68-.49.9-.15.1-.33.09-.44-.04-.17-.16.04-.45.19-.58.15-.12.17-.27.16-.45-.01-.5-.24-.61-.56-.91-.09-.1-.11-.21-.05-.33.07-.14.16-.19.29-.11.55.31.9.77.9,1.53Z"/><path class="cls-1" d="m7.4,96.56c.06.24.06.49,0,.72,0,0,0,0,0,0-.03.09-.06.18-.09.26-.2.47-.58.79-1.13.76-.11,0-.2-.05-.25-.14-.02-.03-.04-.07-.05-.1-.02-.07-.02-.13,0-.18.07-.23.5-.2.69-.29.02-.01.03-.03.04-.04,0,0,0,0,0,0,.06-.06.11-.11.15-.17.43-.61-.22-1.22.29-1.4.13-.04.21,0,.26.18.04.13.07.26.1.37Z"/><path class="cls-1" d="m7.21,92.81c-.02.29-.51.43-.57.1-.04-.19-.01-.4-.05-.59-.09-.23-.49-.49-.73-.48-.24-.01-.65.12-.71-.23-.02-.13.01-.23.14-.25.87-.32,2.11.27,1.92,1.44Z"/><path class="cls-1" d="m7.04,10.57c-.43.7-1.18,1.07-1.95,1.07-.56,0-1.14-.2-1.61-.61-1.14-1.01-2.29-2.01-3.48-2.94V0h.25c.35,1.45.19,2.53.02,4.05-.04.35.08.62.43.8,1.5.86,3.37,1.62,5.16,2.35,1.35.56,1.92,2.16,1.18,3.37Z"/><path class="cls-1" d="m0,9.21v-.48c.05.17.05.33,0,.48Z"/><path class="cls-1" d="m2.65,1.97c.37.42.56.88.61,1.32.01.14.01.28,0,.42-.06.49-.32.94-.76,1.25-.31.11-.67.3-.92-.03-.42-.56.61-.63.77-1.02.15-.35.17-.59.11-.83-.01-.06-.03-.11-.06-.16h0c-.07-.17-.18-.35-.32-.58-.01-.03-.03-.05-.03-.08-.05-.17.03-.33.15-.41.14-.09.32-.08.45.12Z"/><path class="cls-1" d="m2.35,1.11c-.08.13-.19.2-.33.21-.05,0-.11,0-.16-.01-.1-.03-.17-.06-.21-.11-.23-.23.1-.72.12-1.02-.01-.02-.01-.05-.02-.07-.01-.04-.02-.08-.04-.11h.84c.09.36.03.74-.2,1.11Z"/><path class="cls-1" d="m100,21.04v3.07c-.72-.99-1.17-2.1-1.62-3.22-.16-.39-.29-.8-.38-1.21-.07-.33.07-.48.4-.54.53-.1.72-.06.89.44.18.52.43.99.71,1.46Z"/><path class="cls-1" d="m94.6,22.21c1.74.92,3.47,2,5.4,2.43v5.17c-.93.63-1.8,1.38-2.72,2.02-.34.23-.92.38-1.15-.02-.23-.32-.24-.64.06-.89,1.2-1.01,2.47-1.95,3.74-2.89-.02-.05-.02-.04-.04-.09-1.47.22-2.91.52-4.41.47-.48-.01-.95.16-1.43.27-.53.11-.79,0-1.06-.46-.15-.26-.1-.46.15-.62.95-.3,1.94-.61,2.95-.65,1.16-.02,2.33-.04,3.41-.45v-.07c-1.09-.48-2.17-.95-3.15-1.63-.74-.46-1.58-.79-2.25-1.36-.36-.31-.11-1.45.5-1.23Z"/><path class="cls-1" d="m93.59,18.34c.54.18.52,1.03-.17.95-.42,0-.77-.22-1.11.11-.66.47-.61.87-.68,1.6-.03.23-.17.35-.4.38-.71.17-.45-1.36-.35-1.64.44-1.09,1.52-1.86,2.69-1.4Z"/><path class="cls-1" d="m90.75,22.56c.71.75-1.18,1.01-.51,2.61.28.28,1.04.65.73,1.08-.15.23-.44.29-.72.17-.78-.34-1.21-1.2-1.09-2.11-.05-.51,1.05-2.29,1.59-1.76Z"/><path class="cls-1" d="m94.2,32.92c.27.02.56-.16.82-.2.61-.17.81.62.38.89-1.55.99-3.4-.69-3.39-2.2-.02-.18.05-.32.26-.36,1.04-.12.22,1.44,1.92,1.87Z"/><path class="cls-1" d="m100,32.45v1.04c-.11.15-.24.28-.34.38-.34.28-.76.43-1.25.42-.15,0-.3-.01-.45-.03-.08-.01-.16-.03-.24-.05-.35-.07-.67-.24-.95-.46-.18-.15-.37-.31-.56-.48-.14-.13-.12-.29,0-.43.44-.46.9.16,1.3.38.16.1.48.15.79.14.26-.01.5-.06.63-.15.05-.05.1-.11.15-.18.2-.29.38-.69.72-.65.06.01.11.02.18.05l.02.02Z"/><path class="cls-1" d="m100,15.44v.92c-.47-.04-.76.19-1.26.43-.2.09-.38.06-.54-.1-.18-.19-.19-.35,0-.52.53-.46,1.12-.73,1.8-.73Z"/><path class="cls-1" d="m90.88,27.07c.88.55-.87,1.32.15,2.67.33.23,1.19.41.97.91-.42.81-1.66-.03-1.94-.63-.52-.91-.33-1.98.31-2.78.12-.17.26-.31.51-.17Z"/><path class="cls-1" d="m97.4,16.01c.44.2.39,1.02-.15.93-.31-.04-.62-.2-.93-.25-.4,0-1.02.47-1.14.85-.16.37-.18,1.07-.75.97-.21-.03-.34-.14-.31-.35,0-1.52,1.58-3.1,3.29-2.14Z"/><path class="cls-1" d="m100,52.49v2.12c-.13-.27-.25-.55-.35-.84-.19-.48-.47-.93-.58-1.44-.06-.28.46-.73.67-.41.09.19.17.38.26.57Z"/><path class="cls-1" d="m98.77,54.7c.39.29.79.58,1.23.79v.91c-.71-.37-1.41-.72-2.04-1.23-.23-.17-.51-.26-.77-.38-.3-.13-.38-.27-.35-.59.03-.18.12-.25.29-.24.56.19,1.14.4,1.64.74Z"/><path class="cls-1" d="m100,56.58v.91c-.1-.02-.21-.04-.32-.05-.69-.03-1.39.02-2.08,0-.25-.02-.58-.15-.54-.42,0-.24.11-.39.34-.4.86-.05,1.73-.05,2.6-.04Z"/><path class="cls-1" d="m100,59.18v.56c-.31-.06-.6-.22-.86-.44-.1-.07-.17-.16-.09-.29.02-.04.05-.06.07-.09.08-.06.18-.07.27-.02.03.01.05.02.08.03.08.05.17.1.25.15.03.02.06.04.09.05.05.03.11.04.19.05Z"/><path class="cls-1" d="m100,49.25v.66c-.09-.09-.18-.16-.34-.14-.48,0-.6.2-.89.52-.1.1-.21.11-.32.04-.4-.17.26-.8.41-.9.36-.21.77-.29,1.14-.18Z"/><path class="cls-1" d="m97.79,50.72c.07.61-.92.06-1.17,1.06.03.23.26.68-.04.77-.15.05-.31-.02-.4-.17-.25-.44-.15-1,.23-1.39.15-.26,1.31-.71,1.38-.27Z"/><path class="cls-1" d="m95.75,56.86c.12.1.32.12.46.2.35.14.16.58-.14.55-1.09-.08-1.37-1.54-.82-2.25.06-.09.14-.14.25-.08.54.31-.41.76.25,1.57Z"/><path class="cls-1" d="m98.66,58.68c.03.06.04.12.03.17-.02.28-.45.37-.69.4-.26.01-.51-.07-.75-.25-.07-.05-.13-.11-.2-.18-.03-.03-.06-.07-.1-.11-.14-.16-.23-.35-.29-.56-.03-.13-.07-.28-.1-.43-.02-.11.04-.18.15-.2.37-.07.37.39.48.64.04.11.18.25.33.35.13.09.26.15.35.15.04,0,.09-.01.13-.03.2-.06.43-.19.57-.05.02.02.04.05.06.09Z"/><path class="cls-1" d="m96.25,52.9c.22.57-.88.32-.88,1.32.08.23.42.62.13.78-.49.24-.78-.6-.7-.98.08-.62.55-1.06,1.14-1.21.12-.04.23-.06.3.1Z"/><path class="cls-1" d="m100,69.66v1.53c-.13-.3-.23-.61-.29-.93-.04-.19.1-.43.29-.6Z"/><path class="cls-1" d="m99.13,74.09c.28.22.57.44.87.64v1.58c-.77-.43-1.52-.9-2.2-1.48-.36-.28-.82-.44-1.23-.64-.47-.23-.61-.46-.54-.97.04-.29.2-.41.48-.38.9.33,1.83.68,2.62,1.25Z"/><path class="cls-1" d="m100,77.16v1.4c-.96-.05-1.91-.02-2.87-.07-.39-.03-.92-.26-.86-.7.02-.38.2-.62.57-.64,1.06-.03,2.11-.02,3.16.01Z"/><path class="cls-1" d="m100,80.93v.97c-.15-.09-.29-.21-.43-.33-.16-.13-.27-.28-.14-.48.04-.05.08-.1.12-.13.13-.1.29-.12.44-.04h.01Z"/><path class="cls-1" d="m100,65.34v.96c-.25.13-.43.37-.71.66-.15.15-.33.16-.52.05-.63-.3.46-1.3.71-1.45.17-.1.34-.17.52-.22Z"/><path class="cls-1" d="m97.69,67.61c.09.99-1.49.06-1.93,1.67.04.38.4,1.11-.09,1.25-.25.08-.51-.04-.65-.3-.38-.72-.21-1.62.43-2.24.26-.41,2.15-1.1,2.25-.38Z"/><path class="cls-1" d="m94.16,77.49c.19.17.52.21.74.34.56.23.25.95-.24.89-1.76-.17-2.16-2.54-1.26-3.67.1-.15.23-.21.41-.11.86.52-.69,1.22.34,2.56Z"/><path class="cls-1" d="m98.81,80.54c.04.1.05.19.05.27-.04.45-.74.58-1.13.63-.43.01-.83-.13-1.2-.43-.11-.08-.21-.18-.32-.29-.05-.06-.1-.11-.15-.17-.22-.27-.37-.58-.44-.92-.05-.21-.1-.45-.14-.7-.03-.17.08-.29.26-.31.61-.09.58.65.76,1.05.06.18.28.41.52.58.2.14.41.25.56.25.07,0,.14-.02.22-.04.32-.1.7-.3.93-.06.04.04.07.08.1.14Z"/><path class="cls-1" d="m95.12,71.09c.34.93-1.44.48-1.47,2.1.12.37.65,1.02.19,1.27-.8.37-1.24-1-1.09-1.62.15-1,.93-1.69,1.89-1.92.19-.06.38-.08.49.17Z"/><path class="cls-1" d="m100,93.23v1.86c-.12-.26-.23-.52-.32-.8-.1-.27-.29-.51-.45-.76-.17-.28-.17-.46.04-.71.12-.14.24-.15.39-.04.11.15.23.3.34.45Z"/><path class="cls-1" d="m98.38,95.22c.55.32,1.09.66,1.62,1.01v1.1s-.07-.07-.11-.1c-.58-.42-1.21-.78-1.8-1.19-.2-.15-.41-.45-.23-.66.14-.21.32-.28.52-.16Z"/><path class="cls-1" d="m100,99.06v.69c-.09.01-.18.01-.29,0-.16-.01-.31-.04-.45-.1-.1-.04-.19-.09-.27-.15-.3-.23-.52-.58-.62-.97-.05-.12-.06-.24.09-.31.03-.02.07-.03.1-.03.11-.01.2.03.26.13.01.02.02.05.04.07.05.09.09.19.14.28.01.03.03.06.04.09.04.07.13.15.23.22.17.11.4.2.54.17.06-.02.12-.06.19-.09Z"/><path class="cls-1" d="m100,90.22v1.03h-.02c-.16-.04-.26-.2-.25-.38.02-.24.12-.47.27-.65Z"/><path class="cls-1" d="m96.82,94.5c.05.16.21.29.29.43.23.32-.19.59-.43.4-.89-.68-.31-2.1.56-2.41.1-.05.2-.04.26.08.29.57-.78.43-.68,1.5Z"/><path class="cls-1" d="m98.3,97.72c-.01.07-.04.12-.07.16-.17.23-.6.06-.82-.04-.23-.14-.4-.35-.51-.64-.03-.08-.05-.17-.07-.26,0-.05-.02-.1-.02-.15-.03-.22,0-.44.07-.64.05-.13.1-.28.16-.42.04-.1.14-.13.24-.08.36.15.09.55.05.82-.03.11.01.31.08.49.06.15.14.28.22.33.04.02.08.04.13.05.21.06.48.07.52.28,0,.03,0,.07,0,.11Z"/><path class="cls-1" d="m99.49,91.37c-.13.62-.94-.23-1.5.64-.06.24.01.77-.32.75-.55-.07-.33-.96-.04-1.24.42-.49,1.07-.6,1.67-.4.12.03.23.08.2.26Z"/><path class="cls-1" d="m100,0v8.09c-.31-.25-.62-.49-.94-.72-.17-.11-.33-.13-.52-.07-.56.18-1.13.33-1.68.53-.89.41-1.73.92-2.61,1.34-.31.14-.81.19-.94-.17-.15-.3-.11-.56.17-.73,1.13-.66,2.3-1.26,3.47-1.85-.01-.05-.01-.04-.02-.09-1.24-.02-2.46.04-3.69-.22-.39-.06-.8.01-1.2.03-.45.02-.65-.11-.81-.52-.09-.24-.03-.39.2-.49.82-.12,1.68-.24,2.52-.13.95.14,1.91.29,2.85.1t.02-.06c-.83-.54-1.65-1.08-2.37-1.77-.54-.48-1.19-.86-1.65-1.42-.26-.31.1-1.21.57-.94,1.37,1.05,2.7,2.23,4.33,2.84-.01-.15-.01-.24-.07-.37-.51-.96-.74-2-.97-3.04-.03-.11-.05-.22-.07-.34h1.13c.19.63.48,1.24.7,1.86.21.55.26,1.16.52,1.69h.07c.18-.76.21-1.56.33-2.33.05-.41,0-.83-.13-1.22h.79Z"/><path class="cls-1" d="m99.89,8.47c.29.5.11.84-.16,1.26-.11.19-.25.34-.41.47-.11.09-.24.16-.37.22-.47.21-1.03.22-1.57.09-.17-.03-.32-.1-.3-.31,0-.05.02-.1.04-.15.06-.13.17-.21.32-.21.04,0,.08,0,.12,0,.14,0,.28.01.42.02h0s.1,0,.14,0c.11,0,.26-.04.41-.12.25-.13.5-.34.56-.52.03-.22,0-.47.03-.7.02-.42.62-.4.77-.05Z"/><path class="cls-1" d="m90.16.66c.48.71-1.11.66-.78,2.07.19.27.76.68.45.99-.16.16-.4.18-.62.04-.59-.39-.83-1.15-.61-1.88.03-.42,1.18-1.73,1.55-1.22Z"/><path class="cls-1" d="m91.57,9.64c.22.05.48-.06.7-.05.52-.06.58.62.19.78-1.41.6-2.7-1.04-2.48-2.27.01-.15.09-.26.26-.26.87.04-.02,1.21,1.32,1.8Z"/><path class="cls-1" d="m96.38,10.04c.07.06.12.12.15.19.15.36-.32.75-.6.95-.32.19-.68.25-1.09.18-.12-.02-.24-.05-.36-.09-.06-.02-.13-.04-.19-.07-.28-.11-.52-.29-.72-.51-.12-.14-.26-.3-.4-.47-.1-.12-.06-.25.06-.35.42-.32.71.25,1.01.48.12.11.38.19.63.23.21.03.42.02.53-.04.05-.03.1-.07.15-.12.21-.21.41-.52.69-.43.04.01.09.04.14.07Z"/><path class="cls-1" d="m89.65,4.38c.65.57-.9.96-.24,2.21.24.23.92.5.67.88-.45.61-1.36-.25-1.5-.78-.3-.82,0-1.67.64-2.24.12-.12.26-.22.44-.07Z"/><path class="cls-1" d="m21.53,61.77c-1.46,1.12-2.65,1.4-4.36,1.85-.36.1-.58.32-.63.73-.27,1.81-.3,3.95-.33,6-.02,1.55-1.39,2.73-2.86,2.47h0c-1.49-.26-2.37-1.86-1.83-3.34.7-1.9,1.38-3.81,1.9-5.77.05-.21,0-.38-.13-.54-.39-.48-.76-.99-1.17-1.45-.74-.72-1.57-1.35-2.32-2.06-.26-.26-.5-.73-.2-1,.24-.26.51-.32.78-.11,1.09.86,2.13,1.78,3.17,2.71l.07-.05c-.46-1.23-.98-2.41-1.21-3.72-.08-.41-.31-.79-.49-1.18-.19-.44-.15-.68.2-1,.2-.18.38-.18.56.02.44.76.88,1.56,1.1,2.43.22.99.45,2,1,2.86h.07c.22-1.04.43-2.06.84-3.03.26-.72.39-1.51.76-2.18.2-.37,1.23-.36,1.15.21-.51,1.75-1.16,3.52-1.13,5.36.14-.06.23-.11.33-.21.76-.87,1.69-1.5,2.62-2.13.31-.21.64-.39.98-.55.27-.12.42-.03.54.25.18.44.18.61-.22.84-.8.48-1.41,1.18-2.11,1.78-.46.42-1.04.7-1.47,1.16l.03.07c.82-.12,1.61-.4,2.42-.58.44-.11.82-.32,1.17-.62.51-.51,1.41.3.76.78Z"/><path class="cls-1" d="m12.66,64.95c-.38.48-.79.44-1.3.33-.23-.04-.44-.12-.62-.23-.13-.08-.25-.17-.36-.28-.38-.38-.61-.93-.69-1.51-.04-.18-.03-.35.19-.42.05-.02.11-.02.16-.02.15,0,.27.09.33.23.02.04.03.08.04.12.05.14.1.28.14.42h0s.03.1.05.14c.04.11.15.24.28.36.23.2.53.36.73.35.23-.05.46-.19.7-.24.42-.14.63.46.34.74Z"/><path class="cls-1" d="m20.13,65.16c-.28.53-.65.9-1.07,1.11-.13.07-.27.12-.42.16-.51.13-1.05.04-1.52-.27-.22-.26-.55-.55-.33-.92.39-.63.85.36,1.3.36.41.02.65-.06.86-.21.05-.04.09-.08.14-.12h0c.14-.14.27-.32.45-.53.02-.02.04-.05.07-.06.15-.11.33-.1.46,0,.14.1.21.29.06.49Z"/><path class="cls-1" d="m20.76,54.03c-.06.49-.79.64-.85.03-.08-.36.05-.7-.29-.94-.52-.48-.86-.37-1.5-.29-.2.02-.33-.09-.4-.27-.27-.58,1.09-.64,1.35-.6,1.02.18,1.88.98,1.69,2.07Z"/><path class="cls-1" d="m16.61,52.35c-.52.75-1.08-.84-2.34.03-.19.29-.38,1.02-.8.83-.22-.09-.33-.33-.28-.59.15-.73.81-1.26,1.62-1.32.43-.14,2.16.49,1.8,1.06Z"/><path class="cls-1" d="m8.29,57.2c.03.24.24.45.32.67.26.5-.38.81-.7.49-1.14-1.16-.02-3.06,1.28-3.32.15-.05.29-.02.36.16.3.87-1.2.45-1.27,2Z"/><path class="cls-1" d="m9.76,62.1c-.03.09-.08.17-.13.22-.3.29-.86-.03-1.16-.23-.31-.24-.51-.58-.59-1.01-.03-.12-.04-.25-.05-.39,0-.07,0-.14,0-.21,0-.32.09-.63.23-.91.09-.18.2-.38.31-.57.08-.14.22-.15.37-.07.48.29.02.8-.09,1.18-.06.16-.04.45.02.71.06.22.14.42.25.51.05.04.11.07.18.1.28.12.67.2.69.51,0,.05,0,.1-.02.16Z"/><path class="cls-1" d="m24.43,59.98c-.11.51-.39.93-.89,1.18-.23.12-.48.06-.62-.15-.21-.26.14-.63.39-.79.24-.13.3-.35.32-.6.08-.71-.22-.92-.61-1.41-.11-.15-.12-.32,0-.48.13-.19.27-.23.44-.1.72.55,1.13,1.28.97,2.36Z"/><path class="cls-1" d="m12.74,53.28c-.31.86-1.29-.51-2.27.61-.14.33-.14,1.1-.61,1-.77-.21-.28-1.44.19-1.78.69-.61,1.65-.64,2.46-.24.17.07.32.17.24.41Z"/><path class="cls-1" d="m22.97,62.29c.04.35-.01.71-.15,1.03,0,0,0,0,0,0-.05.13-.12.25-.19.36-.39.62-.99,1-1.76.85-.16-.03-.27-.11-.33-.25-.02-.05-.04-.1-.05-.16-.02-.11,0-.19.02-.25.14-.31.75-.18,1.05-.27.02-.02.05-.03.07-.05,0,0,0,0,0,0,.09-.07.17-.14.24-.21.73-.79-.07-1.79.7-1.93.19-.03.3.06.34.32.03.19.05.38.07.55Z"/><path class="cls-1" d="m23.46,56.9c-.09.41-.81.52-.83.04-.02-.28.06-.57.05-.85-.08-.34-.59-.8-.94-.83-.35-.07-.96.04-.97-.47,0-.18.06-.32.25-.33,1.31-.28,2.96.81,2.44,2.45Z"/><path class="cls-1" d="m42.6,58.6c-.98,1.84-2.08,2.68-3.64,3.94-.32.27-.45.61-.3,1.05.57,1.99,1.54,4.21,2.46,6.33.7,1.61-.16,3.46-1.8,3.88h0c-1.66.42-3.31-.82-3.44-2.59-.17-2.29-.35-4.58-.73-6.84-.04-.24-.17-.39-.38-.5-.63-.31-1.24-.66-1.89-.94-1.1-.39-2.25-.66-3.35-1.04-.39-.15-.85-.52-.67-.94.13-.38.38-.57.75-.48,1.53.37,3.03.84,4.53,1.31l.05-.09c-1.04-1.05-2.14-2.03-2.98-3.27-.28-.39-.69-.67-1.05-.99-.4-.36-.47-.63-.26-1.12.12-.28.31-.36.58-.25.81.58,1.63,1.19,2.27,1.99.69.92,1.4,1.85,2.36,2.48l.06-.05c-.26-1.16-.51-2.3-.54-3.49-.07-.86-.3-1.74-.23-2.61.04-.47,1.1-.95,1.28-.32.29,2.04.44,4.17,1.34,6.05.11-.13.19-.22.24-.37.37-1.25,1.04-2.34,1.71-3.42.22-.36.48-.7.75-1.02.22-.25.42-.23.67,0,.39.37.46.54.16.97-.6.87-.91,1.87-1.34,2.82-.28.65-.75,1.2-.97,1.88l.07.06c.79-.5,1.48-1.16,2.22-1.72.4-.32.7-.72.92-1.19.29-.76,1.6-.35,1.15.45Z"/><path class="cls-1" d="m34.94,66.01c-.17.68-.61.82-1.19.95-.26.07-.51.08-.75.06-.17-.02-.34-.06-.5-.12-.57-.21-1.07-.67-1.42-1.23-.12-.17-.19-.35,0-.52.05-.04.1-.07.16-.1.16-.06.32-.04.45.08.03.03.07.07.1.1.12.12.23.24.34.36h0s.08.08.12.13c.1.1.26.18.45.24.33.1.71.12.92.02.22-.16.39-.41.61-.57.37-.35.87.18.7.6Z"/><path class="cls-1" d="m42.74,62.74c-.04.67-.25,1.23-.59,1.64-.11.13-.23.25-.36.36-.47.37-1.06.53-1.69.43-.35-.17-.82-.3-.76-.79.11-.83,1.05-.03,1.51-.23.43-.17.65-.36.79-.62.03-.06.06-.12.09-.19h0c.08-.21.14-.45.21-.76.01-.04.02-.07.04-.1.1-.18.3-.25.47-.22.19.04.35.2.29.48Z"/><path class="cls-1" d="m38.19,50.98c.17.54-.52,1.03-.86.42-.25-.34-.27-.75-.74-.83-.76-.25-1.06.02-1.69.4-.2.11-.38.07-.54-.1-.55-.47.83-1.17,1.12-1.24,1.14-.29,2.39.13,2.71,1.35Z"/><path class="cls-1" d="m33.12,51.18c-.19,1.01-1.5-.36-2.4,1.13-.06.39.09,1.22-.44,1.23-.27,0-.5-.18-.56-.48-.18-.83.25-1.68,1.05-2.12.38-.34,2.46-.5,2.35.25Z"/><path class="cls-1" d="m26.82,60.06c.15.23.46.35.65.54.5.39-.02,1.01-.49.82-1.71-.66-1.45-3.14-.23-4.02.14-.12.29-.15.44,0,.71.76-1.03,1.02-.37,2.65Z"/><path class="cls-1" d="m30.62,64.42c.01.11,0,.21-.03.29-.17.44-.9.37-1.31.31-.43-.11-.79-.36-1.08-.76-.08-.11-.16-.24-.23-.38-.04-.07-.07-.14-.1-.22-.14-.33-.2-.69-.18-1.04.01-.22.03-.48.05-.74.02-.18.16-.26.34-.24.63.08.4.81.46,1.26,0,.19.16.48.35.72.16.2.34.37.49.41.07.02.15.02.23.02.35,0,.78-.1.95.2.03.05.05.1.06.17Z"/><path class="cls-1" d="m44.75,55.39c.12.58.03,1.14-.36,1.63-.19.23-.47.28-.71.13-.34-.17-.15-.72.03-1,.18-.25.14-.5.04-.77-.25-.77-.66-.84-1.29-1.17-.18-.11-.27-.27-.23-.49.05-.25.17-.36.41-.31,1,.23,1.76.79,2.1,1.98Z"/><path class="cls-1" d="m29.58,53.94c.08,1.03-1.57.07-2.06,1.69.01.4.37,1.2-.17,1.32-.9.14-.95-1.35-.64-1.93.43-.95,1.4-1.43,2.42-1.39.2,0,.4.03.44.31Z"/><path class="cls-1" d="m44.32,58.46c.2.35.32.74.32,1.14,0,0,0,0,0,0,0,.16,0,.31-.02.46-.11.82-.56,1.5-1.42,1.7-.18.05-.33,0-.46-.1-.04-.04-.09-.09-.12-.14-.07-.1-.09-.19-.09-.27,0-.39.69-.54.95-.77.02-.03.03-.05.05-.08,0,0,0,0,0,0,.07-.11.12-.22.15-.33.39-1.15-.9-1.82-.18-2.32.18-.12.33-.08.5.17.12.18.23.37.33.54Z"/><path class="cls-1" d="m42.31,52.67c.1.47-.59.91-.84.42-.15-.28-.21-.62-.35-.9-.24-.32-.98-.54-1.36-.42-.39.09-.97.49-1.22-.03-.09-.19-.09-.36.1-.46,1.22-.9,3.42-.55,3.66,1.38Z"/><path class="cls-1" d="m29.07,84.08c-1.76-.48-2.69-1.26-4.07-2.35-.29-.22-.6-.27-.95-.06-1.59.87-3.3,2.13-4.94,3.33-1.24.91-2.99.54-3.66-.79h0c-.68-1.34.06-2.99,1.54-3.44,1.92-.59,3.84-1.19,5.7-1.95.19-.08.3-.22.35-.42.14-.6.33-1.19.44-1.79.12-1.02.13-2.05.23-3.07.05-.36.28-.83.67-.75.35.03.56.21.56.55-.02,1.38-.13,2.75-.24,4.13l.09.03c.7-1.09,1.32-2.22,2.22-3.18.28-.31.44-.72.64-1.09.23-.42.45-.53.91-.44.26.05.36.19.32.45-.34.8-.7,1.63-1.26,2.32-.65.77-1.31,1.55-1.66,2.5l.05.04c.94-.44,1.87-.88,2.88-1.14.73-.22,1.42-.59,2.18-.7.41-.06,1.02.75.52,1.03-1.69.65-3.48,1.19-4.91,2.32.13.07.22.12.36.13,1.14.08,2.2.44,3.25.8.35.12.69.27,1.02.45.26.14.28.32.13.58-.24.41-.37.5-.8.33-.86-.35-1.78-.41-2.67-.6-.61-.12-1.17-.41-1.8-.47l-.04.07c.58.58,1.28,1.04,1.9,1.57.35.28.75.46,1.19.56.71.1.61,1.3-.16,1.07Z"/><path class="cls-1" d="m21.25,78.97c-.61-.02-.82-.36-1.04-.83-.11-.21-.17-.42-.19-.63-.02-.15-.01-.3,0-.45.07-.53.37-1.04.78-1.45.12-.14.26-.23.44-.1.05.03.08.07.11.11.08.12.1.27.02.4-.02.03-.04.07-.07.1-.08.12-.16.24-.24.36h0s-.06.08-.08.13c-.07.1-.11.26-.12.43-.02.3.03.64.16.79.18.15.42.26.61.41.37.25.01.78-.38.72Z"/><path class="cls-1" d="m25.55,85.01c-.58.1-1.1.02-1.52-.18-.14-.07-.26-.14-.37-.23-.41-.33-.66-.8-.7-1.36.07-.33.1-.76.53-.81.73-.07.23.89.49,1.25.23.33.44.48.68.55.06.02.12.03.18.04h0c.19.03.41.03.69.03.03,0,.06,0,.09.02.17.05.28.21.28.36,0,.17-.1.34-.35.34Z"/><path class="cls-1" d="m34.72,78.84c-.43.25-.98-.24-.53-.65.24-.28.59-.38.56-.79.07-.7-.22-.9-.67-1.36-.13-.15-.13-.31-.02-.48.29-.56,1.16.48,1.28.71.47.92.35,2.07-.62,2.58Z"/><path class="cls-1" d="m33.57,74.55c-.9.04.01-1.36-1.43-1.83-.34.02-1.03.31-1.13-.14-.06-.23.06-.46.3-.57.67-.32,1.48-.11,2.02.49.36.26.9,2,.25,2.06Z"/><path class="cls-1" d="m24.76,70.88c-.17.17-.21.46-.34.66-.24.5-.87.18-.8-.26.23-1.59,2.41-1.85,3.39-.97.13.09.18.22.09.38-.51.76-1.07-.68-2.34.19Z"/><path class="cls-1" d="m21.77,74.97c-.09.03-.18.04-.25.03-.41-.06-.49-.7-.52-1.06,0-.39.16-.75.44-1.07.08-.09.18-.19.28-.27.05-.04.11-.09.17-.13.25-.19.55-.31.85-.36.19-.03.42-.07.64-.1.16-.02.26.08.27.25.06.55-.62.5-.99.64-.16.04-.38.23-.55.44-.14.17-.25.37-.26.5,0,.06.01.13.03.2.07.3.24.65.01.85-.04.03-.08.06-.14.08Z"/><path class="cls-1" d="m32.22,85.3c-.47.22-.97.25-1.46,0-.23-.11-.33-.35-.25-.58.08-.32.59-.27.86-.17.25.11.45.03.67-.11.61-.36.59-.72.75-1.33.06-.18.18-.28.38-.29.23-.01.34.07.34.29,0,.9-.34,1.66-1.28,2.18Z"/><path class="cls-1" d="m30.52,72.05c-.86.27-.37-1.33-1.84-1.43-.34.09-.95.55-1.16.11-.3-.74.97-1.08,1.52-.92.9.18,1.49.92,1.66,1.8.04.17.06.35-.18.43Z"/><path class="cls-1" d="m29.52,85.53c-.26.24-.57.41-.91.5,0,0,0,0,0,0-.13.03-.26.06-.39.07-.72.07-1.39-.18-1.73-.88-.08-.14-.07-.28,0-.41.02-.05.06-.09.1-.13.07-.08.14-.12.21-.13.33-.07.59.49.84.67.03,0,.05.02.08.03,0,0,0,0,0,0,.11.03.21.06.31.07,1.06.11,1.38-1.12,1.95-.6.14.13.13.27-.05.46-.13.14-.27.27-.4.38Z"/><path class="cls-1" d="m34.08,82.69c-.38.18-.89-.33-.52-.63.21-.18.49-.3.7-.47.23-.27.27-.95.1-1.24-.15-.31-.61-.73-.21-1.05.14-.12.29-.14.41,0,1.01.87,1.13,2.82-.47,3.39Z"/><path class="cls-1" d="m24.4,100h-4.86c-.08-.1-.15-.19-.23-.28-.13-.15-.29-.21-.49-.2-.59.05-1.19.05-1.77.13-.51.09-1.02.22-1.52.35h-2.23s-.01-.05-.01-.07c-.08-.32.02-.57.34-.67,1.26-.38,2.56-.68,3.85-.98,0-.05,0-.04-.01-.09-1.2-.32-2.41-.56-3.56-1.1-.36-.16-.79-.19-1.18-.27-.45-.09-.62-.25-.67-.7-.03-.25.07-.39.32-.43.83.08,1.69.17,2.49.47.9.37,1.81.75,2.78.79,0-.02,0-.03.03-.06-.69-.72-1.36-1.45-1.9-2.3-.41-.6-.96-1.13-1.28-1.79-.17-.36.39-1.16.79-.79,1.09,1.36,2.11,2.84,3.56,3.83.03-.15.05-.24.02-.38-.26-1.06-.25-2.14-.22-3.21,0-.36.04-.71.11-1.06.05-.28.21-.35.49-.28.44.1.57.19.53.63-.06.89.15,1.75.24,2.62.07.59-.03,1.2.09,1.79t.08,0c.36-.7.58-1.48.88-2.21.15-.4.2-.82.16-1.25-.12-.68,1.01-.93,1.02-.16.08,1.75-.36,2.83-.95,4.41-.12.34-.07.63.23.89.83.8,1.83,1.59,2.87,2.36Z"/><path class="cls-1" d="m24.13,95.28c.26.5.34,1,.28,1.45-.02.14-.06.28-.11.41-.18.47-.54.84-1.05,1.04-.33.03-.73.13-.89-.25-.27-.65.75-.47,1-.82.23-.31.31-.54.31-.79,0-.06,0-.12-.02-.18h0c-.03-.19-.1-.39-.17-.64,0-.03-.01-.06-.01-.09,0-.17.11-.31.25-.36.15-.06.34,0,.42.23Z"/><path class="cls-1" d="m15.8,88.69c.35.32.06.97-.44.67-.33-.14-.52-.43-.89-.28-.66.14-.76.46-1.05,1.01-.1.17-.25.21-.43.16-.6-.11.1-1.2.28-1.38.7-.7,1.79-.93,2.54-.18Z"/><path class="cls-1" d="m12.2,91c.3.82-1.25.38-1.26,1.85.12.31.59.85.2,1.08-.19.12-.44.08-.61-.11-.49-.52-.54-1.32-.14-1.99.13-.41,1.57-1.41,1.81-.83Z"/><path class="cls-1" d="m11.26,100h-.94c-.26-.56-.31-1.23-.08-1.75.05-.15.15-.23.32-.19.8.24-.19,1.09.7,1.94Z"/><path class="cls-1" d="m22.45,89.09c.34.37.51.81.43,1.34-.04.24-.22.41-.46.4-.32.02-.42-.46-.41-.74.03-.26-.11-.42-.3-.58-.51-.45-.84-.33-1.44-.3-.18,0-.31-.08-.38-.26-.08-.2-.04-.34.17-.4.83-.26,1.61-.18,2.37.54Z"/><path class="cls-1" d="m10.81,94.53c.5.71-1.11.73-.77,2.11.18.29.78.71.44,1.03-.59.49-1.27-.57-1.29-1.13-.1-.88.4-1.64,1.17-2.05.15-.09.3-.15.45.04Z"/><path class="cls-1" d="m23.45,91.49c.29.17.54.4.72.69,0,0,0,0,0,0,.07.11.13.23.18.34.28.64.24,1.32-.3,1.84-.11.11-.24.15-.38.12-.05,0-.1-.02-.15-.05-.09-.05-.15-.1-.18-.16-.16-.28.27-.69.36-.97,0-.03,0-.05,0-.08,0,0,0,0,0,0,0-.11-.01-.21-.03-.3-.21-1-1.43-.93-1.12-1.6.08-.16.21-.2.43-.09.16.08.32.17.47.25Z"/><path class="cls-1" d="m19.51,88.16c.27.3-.04.91-.43.67-.23-.14-.41-.36-.64-.5-.31-.13-.95.03-1.16.27-.24.23-.49.77-.9.5-.15-.09-.22-.22-.12-.38.5-1.18,2.25-1.86,3.25-.56Z"/><path class="cls-1" d="m37.61,37.31c-1.75,1.17-3.13,1.4-5.12,1.78-.42.09-.69.32-.77.79-.44,2.05-.63,4.49-.82,6.82-.14,1.77-1.79,3.01-3.45,2.6h0c-1.68-.41-2.56-2.31-1.84-3.95.94-2.12,1.87-4.25,2.61-6.45.08-.23.04-.43-.11-.63-.41-.58-.79-1.18-1.23-1.74-.79-.87-1.69-1.66-2.5-2.52-.28-.32-.51-.87-.15-1.15.29-.28.61-.33.9-.07,1.18,1.06,2.3,2.2,3.42,3.33l.09-.06c-.43-1.43-.94-2.83-1.1-4.34-.06-.48-.3-.92-.47-1.38-.19-.51-.12-.79.3-1.12.24-.19.45-.17.64.06.44.9.89,1.84,1.08,2.85.18,1.15.37,2.32.93,3.34h.08c.32-1.16.64-2.31,1.18-3.39.35-.8.56-1.69,1.04-2.43.26-.41,1.43-.32,1.3.32-.71,1.96-1.59,3.93-1.69,6.03.16-.06.27-.1.39-.22.93-.94,2.04-1.59,3.15-2.23.37-.21.76-.4,1.15-.55.32-.12.49,0,.6.33.17.52.16.7-.32.94-.95.48-1.7,1.24-2.54,1.87-.56.44-1.24.72-1.77,1.22l.03.08c.94-.07,1.87-.33,2.8-.48.51-.09.97-.31,1.38-.62.62-.54,1.59.45.81.95Z"/><path class="cls-1" d="m27.25,40.28c-.47.52-.93.44-1.51.28-.26-.06-.49-.17-.69-.31-.14-.1-.27-.22-.39-.35-.41-.46-.63-1.11-.67-1.78-.03-.21,0-.4.25-.46.06-.01.13-.02.19-.01.17.02.31.12.36.29.01.05.03.09.04.14.05.16.09.32.13.49h0c.01.06.03.11.05.17.04.13.15.29.29.43.24.24.58.45.81.46.27-.04.54-.18.82-.22.49-.13.69.57.34.87Z"/><path class="cls-1" d="m35.77,41.08c-.35.58-.81.97-1.31,1.19-.16.07-.32.12-.49.15-.59.11-1.2-.03-1.72-.42-.24-.32-.59-.66-.31-1.07.49-.69.95.47,1.46.51.46.05.75-.02,1-.18.06-.04.11-.08.17-.13h0c.17-.15.34-.34.55-.58.03-.03.05-.05.08-.07.18-.12.39-.08.53.03.15.12.22.34.03.57Z"/><path class="cls-1" d="m37.32,28.42c-.11.56-.95.67-.97-.03-.06-.42.11-.8-.27-1.09-.56-.59-.95-.49-1.69-.45-.23,0-.37-.12-.44-.34-.27-.68,1.3-.64,1.59-.58,1.15.29,2.07,1.25,1.77,2.49Z"/><path class="cls-1" d="m32.7,26.19c-.65.82-1.17-1.04-2.68-.14-.24.32-.51,1.13-.98.88-.25-.12-.36-.4-.27-.7.23-.82,1.02-1.38,1.95-1.39.5-.13,2.43.72,1.98,1.34Z"/><path class="cls-1" d="m22.85,31.1c.02.27.24.53.32.79.26.58-.5.9-.83.5-1.21-1.41.21-3.49,1.71-3.69.18-.04.33,0,.39.21.27,1.02-1.41.42-1.6,2.19Z"/><path class="cls-1" d="m24.16,36.8c-.04.11-.1.18-.16.24-.36.31-.98-.1-1.31-.35-.33-.3-.53-.7-.6-1.2-.02-.14-.03-.29-.03-.45,0-.08,0-.16.01-.24.03-.36.14-.71.33-1.02.12-.19.25-.41.4-.63.1-.15.27-.16.42-.05.53.37-.03.92-.19,1.34-.08.18-.08.51-.03.81.05.25.13.49.24.6.05.05.12.09.2.13.31.16.75.28.75.63,0,.05,0,.11-.03.18Z"/><path class="cls-1" d="m41.06,35.48c-.16.57-.51,1.03-1.1,1.28-.27.11-.56.03-.69-.22-.22-.32.21-.71.5-.88.28-.14.37-.37.41-.67.15-.8-.19-1.06-.59-1.66-.11-.18-.11-.37.03-.55.16-.21.32-.25.51-.08.78.69,1.19,1.54.93,2.76Z"/><path class="cls-1" d="m28.22,26.96c-.42.95-1.44-.68-2.64.53-.18.37-.24,1.24-.78,1.1-.87-.3-.21-1.66.35-2.02.84-.65,1.93-.61,2.82-.08.18.09.35.22.24.48Z"/><path class="cls-1" d="m39.22,38.01c.01.4-.07.81-.25,1.17,0,0,0,0,0,0-.07.14-.15.27-.24.39-.49.68-1.21,1.07-2.08.84-.18-.04-.3-.15-.36-.31-.02-.06-.04-.12-.04-.18-.01-.12,0-.22.04-.29.19-.34.87-.15,1.22-.23.03-.02.06-.03.08-.05,0,0,0,0,0,0,.11-.07.21-.14.29-.22.89-.84.06-2.05.94-2.15.22-.02.34.09.36.39.02.22.03.44.03.64Z"/><path class="cls-1" d="m40.18,31.9c-.13.46-.96.53-.95-.02,0-.32.11-.65.12-.97-.06-.4-.62-.95-1.01-1.02-.39-.1-1.09-.02-1.07-.61,0-.21.09-.36.31-.36,1.52-.22,3.31,1.14,2.6,2.98Z"/><path class="cls-1" d="m51.34,53.48c-1.64-1.77-2.14-3.29-2.92-5.47-.18-.45-.49-.72-1.03-.73-2.4-.14-5.19.08-7.86.28-2.03.15-3.72-1.49-3.55-3.44h0c.17-1.97,2.15-3.31,4.14-2.78,2.57.68,5.14,1.35,7.75,1.8.27.04.49-.04.69-.23.58-.57,1.2-1.11,1.75-1.7.85-1.05,1.57-2.21,2.41-3.27.31-.37.89-.74,1.28-.37.37.28.48.63.24,1-.99,1.52-2.07,2.99-3.16,4.45l.08.09c1.54-.74,3.03-1.56,4.71-2.01.53-.16.99-.5,1.48-.77.55-.3.87-.27,1.32.14.26.24.27.47.05.73-.94.66-1.93,1.33-3.03,1.72-1.27.41-2.55.83-3.61,1.64l.03.08c1.36.16,2.71.32,4.03.73.97.26,2.01.33,2.94.74.5.22.62,1.56-.14,1.52-2.34-.46-4.73-1.1-7.12-.84.1.17.17.29.32.4,1.22.88,2.16,2.03,3.09,3.17.31.38.58.79.83,1.21.19.34.09.55-.26.73-.55.29-.77.3-1.12-.19-.72-.99-1.7-1.7-2.57-2.54-.6-.56-1.03-1.28-1.69-1.78l-.09.05c.25,1.05.71,2.05,1.04,3.09.2.56.52,1.04.95,1.45.72.61-.23,1.88-.93,1.08Z"/><path class="cls-1" d="m46.15,42.29c-.67-.44-.66-.97-.58-1.66.02-.3.1-.58.22-.84.09-.18.2-.35.32-.5.45-.54,1.14-.91,1.89-1.08.23-.07.46-.08.57.2.03.07.04.14.05.21,0,.19-.08.37-.26.46-.05.02-.1.05-.15.07-.17.08-.35.16-.53.23h0c-.06.03-.12.05-.18.08-.14.07-.3.22-.44.4-.23.32-.41.73-.37.99.1.3.3.58.39.89.24.53-.53.88-.93.54Z"/><path class="cls-1" d="m46.75,52.06c-.72-.3-1.25-.75-1.57-1.27-.11-.17-.19-.34-.25-.52-.23-.65-.18-1.36.17-2.02.32-.32.65-.78,1.15-.54.87.44-.37,1.15-.32,1.74.03.53.15.84.38,1.1.05.06.11.11.17.17h0c.2.17.44.32.75.52.03.02.06.05.09.08.16.18.16.43.06.6-.11.2-.35.31-.63.13Z"/><path class="cls-1" d="m61.34,51.57c-.65-.02-.93-.96-.14-1.1.46-.14.92-.01,1.19-.49.57-.74.39-1.16.2-2-.04-.26.07-.44.31-.55.72-.42.96,1.35.94,1.69-.12,1.36-1.05,2.56-2.5,2.45Z"/><path class="cls-1" d="m63.05,45.95c-1.04-.59.96-1.51-.32-3.05-.4-.22-1.37-.37-1.17-.95.09-.3.39-.47.74-.43.97.12,1.74.91,1.92,1.96.23.54-.39,2.88-1.16,2.48Z"/><path class="cls-1" d="m55.74,35.69c-.3.07-.56.37-.84.5-.62.4-1.1-.41-.71-.85,1.37-1.62,3.99-.38,4.48,1.28.08.2.05.37-.17.48-1.1.49-.73-1.51-2.76-1.42Z"/><path class="cls-1" d="m49.53,38.18c-.13-.03-.23-.08-.3-.14-.41-.35-.07-1.13.16-1.55.28-.43.7-.73,1.24-.89.16-.05.33-.08.51-.11.09-.01.18-.02.28-.03.41-.03.83.04,1.21.19.24.1.51.21.78.34.19.09.23.27.13.47-.33.66-1.04.13-1.55.03-.21-.06-.59,0-.92.11-.28.1-.53.24-.64.38-.04.07-.08.15-.11.25-.13.38-.19.89-.58.96-.06.01-.13.01-.21,0Z"/><path class="cls-1" d="m54.02,57.06c-.68-.08-1.26-.4-1.64-1.02-.18-.29-.13-.62.12-.82.32-.31.84.11,1.08.42.2.3.49.35.82.34.94.02,1.17-.4,1.77-.96.19-.16.4-.19.63-.06.26.15.34.32.18.57-.64,1.01-1.53,1.62-2.96,1.55Z"/><path class="cls-1" d="m61.38,41.03c-1.15-.31.52-1.75-1.07-2.89-.45-.14-1.45-.05-1.38-.68.19-1.04,1.84-.53,2.35.04.88.83,1.03,2.07.6,3.18-.07.22-.18.43-.5.36Z"/><path class="cls-1" d="m50.84,55.43c-.45.09-.92.06-1.36-.08,0,0,0,0,0,0-.17-.06-.33-.12-.49-.2-.86-.43-1.42-1.18-1.32-2.2.01-.21.12-.36.28-.46.06-.03.13-.06.2-.08.14-.03.24-.03.33,0,.42.15.33.96.48,1.33.02.03.05.06.07.09,0,0,0,0,0,0,.1.12.2.21.3.29,1.11.86,2.33-.3,2.6.68.06.25-.04.4-.37.48-.24.06-.49.11-.71.15Z"/><path class="cls-1" d="m57.92,55.43c-.55-.07-.77-.99-.14-1.08.36-.06.75.01,1.11-.04.44-.14.97-.87.98-1.32.05-.46-.17-1.24.5-1.32.24-.03.42.04.46.29.52,1.68-.7,3.95-2.9,3.47Z"/><path class="cls-1" d="m52.46,62.08c.85,1.12,1.06,2.02,1.4,3.33.08.27.25.45.56.48,1.38.21,3.01.23,4.57.25,1.18.02,2.08,1.06,1.88,2.18h0c-.2,1.14-1.42,1.8-2.54,1.39-1.45-.53-2.9-1.06-4.4-1.45-.16-.04-.29,0-.41.1-.37.3-.75.58-1.1.89-.55.56-1.03,1.2-1.57,1.77-.2.2-.55.38-.76.15-.2-.18-.25-.39-.09-.59.65-.83,1.36-1.62,2.06-2.41l-.04-.06c-.93.35-1.84.75-2.84.92-.31.06-.6.24-.9.37-.33.15-.52.11-.76-.15-.14-.15-.13-.29.01-.43.58-.33,1.19-.67,1.85-.84.76-.17,1.52-.34,2.18-.76v-.05c-.79-.16-1.57-.33-2.31-.64-.55-.2-1.15-.3-1.66-.58-.28-.15-.28-.94.16-.88,1.33.39,2.68.89,4.08.86-.05-.11-.08-.18-.16-.25-.66-.58-1.14-1.29-1.62-2-.16-.24-.3-.49-.41-.74-.09-.2-.02-.32.19-.41.34-.14.46-.13.64.17.36.61.9,1.08,1.36,1.61.32.35.53.8.88,1.12l.05-.03c-.09-.62-.3-1.23-.44-1.84-.08-.33-.25-.63-.47-.89-.39-.39.23-1.08.6-.58Z"/><path class="cls-1" d="m54.87,68.84c.37.29.33.6.25.99-.03.18-.09.33-.17.47-.06.1-.13.19-.21.27-.29.29-.71.47-1.15.53-.14.03-.27.02-.32-.15-.01-.04-.02-.08-.02-.12,0-.11.07-.21.18-.25.03-.01.06-.02.09-.03.1-.04.21-.07.32-.11h0s.07-.02.11-.04c.09-.03.19-.11.27-.21.15-.17.27-.4.27-.56-.04-.18-.14-.35-.18-.53-.11-.32.35-.48.56-.26Z"/><path class="cls-1" d="m55.04,63.14c.4.21.68.5.85.82.05.1.09.21.12.32.1.39.03.8-.21,1.16-.2.17-.42.42-.7.25-.48-.3.27-.65.28-.99.01-.31-.04-.5-.16-.66-.03-.04-.06-.07-.09-.11h0c-.1-.11-.24-.21-.41-.34-.02-.02-.03-.03-.05-.05-.08-.11-.07-.26,0-.35.08-.11.22-.16.37-.04Z"/><path class="cls-1" d="m46.56,62.66c.38.05.49.6.02.64-.28.06-.54-.04-.71.22-.37.4-.28.65-.22,1.15.01.15-.07.25-.21.3-.44.21-.48-.83-.45-1.03.14-.78.74-1.43,1.58-1.29Z"/><path class="cls-1" d="m45.27,65.82c.57.4-.64.82.02,1.79.22.15.77.29.63.61-.07.17-.25.25-.45.21-.56-.12-.96-.62-1.01-1.24-.11-.33.38-1.65.81-1.37Z"/><path class="cls-1" d="m48.97,72.16c.18-.03.34-.18.51-.25.38-.2.62.29.37.53-.88.87-2.33.01-2.53-.98-.04-.12-.01-.22.12-.27.67-.22.34.92,1.52.97Z"/><path class="cls-1" d="m52.7,71.04c.07.02.13.06.17.1.22.23-.02.66-.17.89-.19.23-.44.38-.77.45-.09.02-.19.03-.3.04-.05,0-.11,0-.16,0-.24,0-.48-.07-.69-.18-.13-.07-.29-.15-.44-.24-.11-.06-.12-.17-.05-.28.22-.37.61-.02.9.07.12.05.34.03.54-.02.17-.04.32-.11.39-.19.03-.04.05-.09.08-.14.09-.22.15-.51.39-.53.04,0,.08,0,.12.01Z"/><path class="cls-1" d="m51.09,59.86c.39.08.71.3.9.68.09.18.04.37-.11.47-.2.16-.48-.11-.61-.3-.1-.18-.27-.23-.46-.24-.54-.06-.7.17-1.08.46-.12.08-.24.09-.37,0-.14-.1-.18-.2-.07-.34.42-.55.98-.86,1.8-.74Z"/><path class="cls-1" d="m45.98,68.77c.65.24-.39.99.46,1.73.25.1.84.11.76.47-.16.59-1.09.21-1.36-.14-.47-.53-.49-1.26-.18-1.87.05-.13.13-.24.31-.18Z"/><path class="cls-1" d="m52.85,60.98c.27-.03.54.01.79.12,0,0,0,0,0,0,.1.04.19.09.27.14.48.29.76.76.65,1.34-.02.12-.09.2-.19.25-.04.02-.08.03-.12.04-.08.01-.14,0-.19-.02-.24-.11-.14-.57-.21-.8-.01-.02-.02-.04-.04-.05,0,0,0,0,0,0-.05-.07-.1-.13-.16-.18-.6-.56-1.37.05-1.47-.53-.02-.15.04-.23.24-.26.14-.02.29-.04.42-.05Z"/><path class="cls-1" d="m48.75,60.6c.31.07.39.62.03.63-.21.01-.44-.05-.65-.04-.26.06-.61.45-.64.71-.05.26.03.73-.36.74-.14,0-.24-.05-.25-.19-.21-1,.62-2.25,1.87-1.86Z"/><path class="cls-1" d="m34.84,88.89c.79,1.05.97,1.9,1.28,3.12.07.26.23.42.52.45,1.29.21,2.81.24,4.27.28,1.11.03,1.93,1.01,1.73,2.06h0c-.2,1.06-1.35,1.67-2.39,1.28-1.35-.51-2.71-1.02-4.1-1.4-.15-.04-.27,0-.39.09-.34.28-.71.53-1.04.83-.52.52-.97,1.11-1.48,1.64-.19.18-.52.35-.71.13-.18-.17-.23-.37-.07-.56.62-.77,1.29-1.5,1.95-2.24l-.04-.05c-.88.32-1.73.68-2.66.83-.29.06-.56.22-.84.34-.31.13-.49.1-.71-.15-.13-.14-.12-.27.02-.4.54-.31,1.12-.61,1.74-.77.71-.15,1.43-.31,2.04-.69v-.05c-.74-.16-1.46-.32-2.15-.62-.51-.19-1.07-.29-1.55-.56-.26-.15-.25-.88.16-.82,1.24.38,2.5.86,3.81.85-.04-.1-.07-.17-.15-.24-.61-.55-1.06-1.22-1.5-1.89-.15-.22-.27-.46-.38-.7-.09-.19-.02-.3.18-.38.31-.13.43-.12.6.16.33.57.83,1.02,1.25,1.52.29.33.49.75.82,1.06l.05-.02c-.08-.58-.27-1.15-.39-1.73-.08-.31-.22-.59-.43-.84-.36-.37.23-1,.56-.54Z"/><path class="cls-1" d="m37.03,95.23c.34.28.31.56.22.93-.03.16-.09.31-.17.44-.06.09-.12.18-.2.25-.28.27-.67.43-1.08.48-.13.02-.25.02-.3-.14-.01-.04-.02-.08-.01-.11,0-.11.06-.19.17-.23.03-.01.06-.02.08-.03.1-.03.2-.07.3-.1h0s.07-.02.1-.03c.08-.03.17-.1.26-.19.14-.16.26-.37.26-.52-.04-.17-.13-.33-.16-.5-.1-.3.33-.45.53-.24Z"/><path class="cls-1" d="m37.24,89.91c.37.2.63.47.78.77.05.1.08.2.11.3.09.36.02.75-.2,1.08-.19.16-.39.39-.65.23-.44-.28.26-.6.27-.93.01-.29-.04-.47-.14-.62-.03-.03-.05-.07-.09-.1h0c-.1-.1-.22-.2-.38-.32-.02-.02-.03-.03-.04-.05-.08-.1-.06-.24,0-.33.07-.1.21-.15.35-.04Z"/><path class="cls-1" d="m29.32,89.37c.35.05.45.57.01.6-.26.05-.5-.04-.67.2-.35.37-.27.61-.22,1.07,0,.14-.06.24-.2.28-.41.19-.44-.78-.41-.97.14-.73.71-1.33,1.49-1.19Z"/><path class="cls-1" d="m28.08,92.32c.53.38-.6.76,0,1.67.2.14.72.28.58.58-.07.16-.24.24-.42.19-.52-.12-.89-.59-.93-1.17-.09-.31.37-1.54.77-1.28Z"/><path class="cls-1" d="m31.47,98.28c.17-.02.32-.17.48-.23.35-.18.57.28.34.5-.83.8-2.18-.01-2.35-.94-.03-.11,0-.2.12-.25.62-.2.31.86,1.41.92Z"/><path class="cls-1" d="m34.97,97.27c.07.02.12.06.15.09.2.21-.03.61-.17.83-.18.22-.42.36-.72.42-.09.02-.18.03-.28.03-.05,0-.1,0-.15,0-.22,0-.45-.07-.64-.17-.12-.07-.27-.14-.41-.23-.1-.06-.11-.16-.05-.26.21-.34.57-.01.84.07.11.05.32.04.51,0,.16-.04.3-.1.37-.17.03-.04.05-.08.07-.13.09-.2.15-.47.37-.49.03,0,.07,0,.11.01Z"/><path class="cls-1" d="m33.58,86.8c.36.08.66.28.83.64.08.17.04.34-.11.44-.19.15-.45-.11-.56-.28-.09-.17-.25-.21-.43-.23-.51-.07-.65.15-1.01.42-.11.08-.23.08-.34,0-.13-.09-.16-.19-.07-.32.4-.51.92-.79,1.69-.67Z"/><path class="cls-1" d="m28.72,95.08c.61.23-.38.92.42,1.62.23.1.78.11.71.45-.16.55-1.02.19-1.27-.15-.43-.5-.44-1.18-.15-1.75.05-.12.12-.22.29-.17Z"/><path class="cls-1" d="m35.22,87.86c.25-.02.5.02.73.12,0,0,0,0,0,0,.09.04.17.09.25.14.44.28.71.71.59,1.26-.02.11-.08.19-.18.23-.03.02-.07.03-.11.03-.08.01-.13,0-.18-.02-.22-.1-.12-.54-.19-.75-.01-.02-.02-.03-.03-.05,0,0,0,0,0,0-.05-.07-.1-.13-.15-.17-.55-.53-1.28.03-1.37-.51-.02-.14.04-.21.23-.24.13-.02.27-.03.39-.04Z"/><path class="cls-1" d="m31.38,87.47c.29.07.36.58.02.59-.2.01-.41-.05-.61-.04-.25.05-.57.42-.6.66-.05.25.02.68-.34.69-.13,0-.23-.05-.23-.18-.19-.94.6-2.1,1.76-1.72Z"/><path class="cls-1" d="m61.07,21.66c-1.14-1.16-1.52-2.16-2.1-3.61-.13-.3-.35-.48-.71-.47-1.62-.04-3.49.18-5.28.38-1.36.15-2.54-.91-2.48-2.23h0c.07-1.33,1.37-2.28,2.72-1.97,1.74.4,3.49.79,5.26,1.03.19.02.33-.04.46-.17.38-.4.78-.77,1.13-1.19.55-.73,1.01-1.52,1.54-2.26.2-.26.58-.52.85-.28.25.18.34.41.18.67-.63,1.05-1.32,2.06-2.02,3.07l.06.06c1.02-.54,2-1.12,3.12-1.47.35-.12.66-.36.98-.56.36-.22.58-.21.89.06.18.15.2.31.05.49-.62.47-1.26.94-2,1.23-.84.3-1.7.62-2.39,1.19l.02.06c.92.07,1.83.15,2.73.4.66.15,1.36.18,1.99.43.35.14.45,1.03-.05,1.03-1.59-.25-3.21-.63-4.81-.4.07.11.12.19.22.26.84.56,1.5,1.31,2.15,2.06.22.25.41.52.58.79.14.22.07.37-.16.5-.36.21-.51.22-.76-.1-.51-.65-1.19-1.1-1.79-1.65-.42-.36-.72-.84-1.18-1.16l-.06.04c.19.7.52,1.37.77,2.05.15.37.37.69.67.96.5.39-.11,1.27-.6.75Z"/><path class="cls-1" d="m57.31,14.25c-.46-.28-.47-.64-.43-1.1,0-.21.05-.4.13-.57.05-.12.12-.24.21-.34.29-.38.74-.64,1.24-.77.15-.05.3-.06.39.12.02.05.03.09.04.14.01.13-.05.25-.17.32-.03.02-.06.03-.1.05-.11.06-.23.11-.35.17h0s-.08.04-.12.06c-.1.05-.2.15-.28.28-.15.22-.26.5-.23.68.07.2.21.39.29.59.17.35-.33.6-.61.38Z"/><path class="cls-1" d="m57.95,20.81c-.49-.18-.86-.47-1.09-.81-.08-.11-.14-.23-.18-.35-.17-.43-.15-.91.07-1.36.2-.22.42-.54.76-.39.59.27-.22.79-.17,1.18.03.36.12.56.28.73.04.04.08.07.12.11h0c.14.11.31.21.52.33.02.02.04.03.06.05.11.12.12.28.06.4-.07.14-.23.21-.42.1Z"/><path class="cls-1" d="m67.75,20.13c-.44,0-.65-.62-.12-.74.31-.11.62-.03.79-.36.36-.51.23-.79.09-1.35-.04-.17.04-.3.2-.38.48-.3.68.89.67,1.12-.05.92-.65,1.75-1.62,1.71Z"/><path class="cls-1" d="m68.77,16.31c-.71-.37.61-1.04-.29-2.05-.27-.14-.93-.22-.81-.61.06-.2.25-.33.49-.31.66.05,1.19.57,1.34,1.27.17.36-.19,1.94-.72,1.7Z"/><path class="cls-1" d="m63.6,9.58c-.2.06-.37.26-.55.36-.4.28-.75-.25-.5-.55.89-1.12,2.67-.35,3.05.76.06.13.05.25-.1.33-.73.35-.53-1-1.89-.89Z"/><path class="cls-1" d="m59.48,11.4c-.09-.02-.15-.05-.21-.09-.29-.23-.07-.76.07-1.04.18-.3.45-.51.82-.63.1-.04.22-.07.34-.09.06-.01.12-.02.19-.03.28-.03.56,0,.82.1.16.06.35.13.54.21.13.06.16.18.1.31-.2.45-.7.11-1.04.05-.15-.04-.4.01-.62.1-.19.07-.35.17-.42.27-.03.05-.05.11-.07.17-.08.26-.1.61-.37.66-.04,0-.09.01-.14,0Z"/><path class="cls-1" d="m62.96,24c-.46-.04-.86-.24-1.13-.65-.13-.19-.1-.42.06-.56.21-.21.57.05.74.25.14.19.34.22.56.21.63,0,.78-.3,1.17-.69.12-.11.26-.14.42-.06.18.09.23.21.13.38-.4.69-.99,1.13-1.96,1.11Z"/><path class="cls-1" d="m67.53,13.03c-.78-.18.31-1.19-.79-1.92-.3-.08-.98,0-.94-.43.1-.7,1.22-.4,1.58-.03.61.54.74,1.37.48,2.12-.04.15-.11.3-.33.25Z"/><path class="cls-1" d="m60.78,22.98c-.3.07-.62.07-.92-.02,0,0,0,0,0,0-.12-.03-.23-.07-.33-.12-.59-.27-.99-.76-.94-1.45,0-.14.07-.25.18-.32.04-.02.08-.04.13-.06.09-.03.16-.03.22,0,.29.09.24.64.35.89.02.02.03.04.05.06,0,0,0,0,0,0,.07.08.14.14.21.19.77.55,1.56-.26,1.77.4.04.16-.02.27-.24.33-.16.05-.33.09-.48.12Z"/><path class="cls-1" d="m65.55,22.81c-.37-.03-.54-.65-.12-.72.24-.05.51-.01.75-.05.29-.1.63-.61.63-.91.02-.31-.14-.83.3-.9.16-.03.29.02.32.18.39,1.12-.38,2.67-1.87,2.41Z"/><path class="cls-1" d="m35.39,11.07c1.25.61,1.84,1.32,2.72,2.33.19.21.42.29.71.18,1.32-.43,2.77-1.13,4.16-1.8,1.06-.51,2.31.02,2.63,1.1h0c.33,1.1-.46,2.23-1.64,2.36-1.52.17-3.04.35-4.54.66-.16.03-.26.12-.32.27-.19.43-.41.85-.58,1.28-.24.74-.38,1.52-.61,2.26-.09.26-.32.58-.61.47-.26-.07-.39-.24-.34-.49.21-1.03.49-2.04.76-3.06l-.06-.03c-.67.72-1.3,1.48-2.11,2.07-.25.19-.43.48-.63.73-.23.28-.41.33-.74.2-.19-.07-.25-.2-.18-.38.37-.55.76-1.12,1.27-1.56.59-.48,1.2-.98,1.59-1.64l-.03-.04c-.76.2-1.52.4-2.32.45-.58.07-1.15.24-1.73.22-.32-.01-.66-.71-.25-.85,1.35-.25,2.77-.4,4-1.04-.09-.07-.15-.12-.25-.15-.84-.22-1.59-.63-2.32-1.05-.25-.14-.48-.3-.7-.48-.17-.14-.16-.28-.01-.45.24-.27.35-.32.64-.13.59.38,1.27.56,1.91.82.44.17.82.47,1.28.6l.04-.05c-.35-.51-.81-.96-1.21-1.44-.22-.26-.5-.45-.81-.58-.52-.18-.27-1.06.27-.78Z"/><path class="cls-1" d="m40.52,15.99c.45.1.56.38.66.77.05.17.07.33.06.5,0,.11-.03.23-.07.34-.13.39-.42.73-.79.98-.11.08-.23.14-.35.01-.03-.03-.05-.07-.07-.1-.05-.1-.03-.21.05-.3.02-.02.04-.05.06-.07.08-.08.16-.16.23-.24h0s.05-.05.08-.08c.06-.07.12-.18.15-.31.06-.22.06-.48,0-.61-.11-.14-.28-.25-.4-.39-.24-.24.1-.58.38-.48Z"/><path class="cls-1" d="m38.15,10.87c.45,0,.83.14,1.11.35.09.07.17.14.25.23.26.3.38.7.33,1.12-.1.24-.18.56-.51.53-.56-.05-.05-.7-.19-1-.13-.28-.26-.42-.43-.51-.04-.02-.08-.04-.13-.05h0c-.14-.05-.31-.08-.51-.12-.02,0-.05-.01-.07-.02-.12-.06-.18-.19-.16-.31.02-.13.12-.24.31-.2Z"/><path class="cls-1" d="m30.41,14.2c.35-.13.7.32.3.56-.22.18-.49.2-.53.52-.15.52.04.71.31,1.11.08.13.05.25-.05.36-.3.38-.8-.52-.86-.71-.22-.75.03-1.6.83-1.84Z"/><path class="cls-1" d="m30.68,17.58c.68.1-.2,1.01.81,1.57.26.03.81-.09.83.26.01.18-.11.34-.31.39-.55.14-1.13-.12-1.44-.65-.24-.24-.4-1.63.1-1.58Z"/><path class="cls-1" d="m36.76,21.56c.15-.1.22-.31.35-.45.25-.34.68-.01.56.31-.4,1.16-2.06,1.04-2.68.25-.08-.09-.11-.19-.01-.29.49-.49.71.66,1.78.18Z"/><path class="cls-1" d="m39.57,18.91c.07-.01.14,0,.19.01.3.1.27.59.24.86-.06.29-.22.54-.48.74-.07.06-.16.11-.25.17-.05.03-.09.05-.14.07-.21.1-.45.15-.69.15-.15,0-.32,0-.49-.02-.12,0-.18-.1-.17-.22.04-.42.53-.29.83-.34.13-.01.32-.12.47-.25.13-.11.24-.24.26-.34,0-.05,0-.1,0-.15-.01-.23-.09-.52.11-.64.03-.02.07-.03.11-.04Z"/><path class="cls-1" d="m33.19,9.71c.38-.1.76-.05,1.1.2.16.12.2.31.11.47-.11.23-.48.12-.67,0-.17-.12-.34-.08-.51-.01-.51.18-.54.46-.75.89-.07.13-.17.19-.32.17-.17-.02-.25-.1-.22-.27.13-.68.48-1.19,1.27-1.45Z"/><path class="cls-1" d="m32.61,19.87c.68-.08.09,1.05,1.18,1.33.27-.02.79-.28.88.08.12.6-.88.67-1.27.47-.65-.26-.99-.9-.99-1.58,0-.14,0-.27.19-.3Z"/><path class="cls-1" d="m35.25,9.92c.23-.14.48-.23.75-.24,0,0,0,0,0,0,.1,0,.21,0,.3,0,.55.05,1.01.33,1.17.9.04.12.01.22-.06.31-.02.03-.05.06-.09.09-.07.05-.13.07-.18.07-.26,0-.38-.45-.54-.62-.02-.01-.04-.02-.06-.03,0,0,0,0,0,0-.08-.04-.15-.07-.22-.09-.78-.23-1.19.65-1.54.18-.08-.12-.06-.22.1-.34.12-.08.24-.16.35-.23Z"/><path class="cls-1" d="m31.44,11.41c.31-.08.62.37.3.55-.18.11-.41.15-.59.25-.21.17-.34.67-.25.92.07.26.35.63.01.81-.12.07-.24.07-.31-.06-.63-.79-.45-2.27.83-2.48Z"/><path class="cls-1" d="m70.19,64.36c-1.59-1-2.27-2.03-3.3-3.51-.22-.3-.51-.44-.92-.34-1.82.38-3.87,1.11-5.83,1.81-1.49.53-3.09-.36-3.36-1.86h0c-.28-1.51.94-2.92,2.53-2.92,2.06,0,4.12-.03,6.17-.23.21-.02.36-.13.47-.31.32-.55.67-1.07.96-1.63.42-.96.73-1.97,1.14-2.94.16-.34.52-.73.88-.54.33.14.49.37.38.7-.43,1.34-.95,2.66-1.46,3.98l.08.05c1.01-.87,1.95-1.79,3.12-2.46.36-.22.64-.58.95-.88.35-.34.6-.38,1.02-.16.24.13.3.3.18.54-.57.69-1.17,1.39-1.92,1.91-.87.56-1.75,1.14-2.37,1.96l.04.06c1.05-.16,2.1-.31,3.17-.27.78,0,1.57-.16,2.35-.04.42.06.78,1.04.21,1.17-1.85.13-3.76.14-5.51.82.11.11.18.18.32.24,1.1.41,2.03,1.08,2.96,1.75.31.22.6.47.86.74.21.21.18.39-.05.6-.36.33-.51.38-.88.09-.74-.59-1.62-.93-2.44-1.38-.56-.29-1.03-.75-1.63-.99l-.06.06c.4.74.95,1.4,1.41,2.1.26.38.6.67,1,.9.66.31.21,1.45-.47,1Z"/><path class="cls-1" d="m64.03,57.03c-.59-.2-.69-.59-.77-1.13-.04-.23-.04-.46,0-.67.03-.15.08-.3.14-.44.23-.5.67-.91,1.19-1.19.16-.1.33-.15.46.03.03.05.06.1.08.15.05.14.01.29-.1.4-.03.03-.06.06-.09.08-.11.1-.23.19-.35.28h0s-.08.07-.12.1c-.09.08-.18.22-.24.39-.11.29-.16.63-.08.82.13.2.34.38.47.58.29.35-.22.77-.58.59Z"/><path class="cls-1" d="m66.46,64.23c-.6-.08-1.09-.31-1.44-.63-.11-.1-.21-.22-.3-.34-.3-.44-.41-.99-.28-1.55.17-.31.32-.72.76-.64.74.15-.04.94.11,1.37.13.39.29.6.51.75.05.03.11.06.17.09h0c.18.09.4.15.67.24.03.01.06.03.08.04.16.1.21.29.17.44-.04.17-.2.3-.45.23Z"/><path class="cls-1" d="m77.29,60.89c-.49.12-.89-.53-.33-.8.32-.2.69-.2.79-.61.27-.67.05-.95-.25-1.54-.09-.19-.04-.35.12-.48.45-.46.99.82,1.05,1.08.19,1.04-.27,2.13-1.38,2.34Z"/><path class="cls-1" d="m77.43,56.33c-.9-.23.41-1.33-.86-2.22-.34-.08-1.1,0-1.07-.47,0-.24.2-.43.46-.47.75-.11,1.49.33,1.83,1.08.28.36.3,2.23-.37,2.09Z"/><path class="cls-1" d="m69.86,50.13c-.21.12-.34.39-.53.55-.38.42-.91-.08-.71-.49.7-1.49,2.91-1.1,3.62.05.1.13.12.27-.03.4-.73.59-.85-.99-2.35-.5Z"/><path class="cls-1" d="m65.72,53.26c-.1,0-.19-.01-.25-.05-.38-.18-.28-.83-.19-1.19.12-.38.37-.69.75-.92.11-.07.23-.13.36-.19.06-.03.13-.05.2-.08.3-.11.63-.14.94-.1.2.03.43.06.66.09.16.03.23.16.2.32-.11.56-.75.31-1.16.33-.17,0-.44.12-.67.27-.19.13-.35.29-.4.41-.02.06-.03.13-.03.21-.02.31.04.71-.24.84-.04.02-.1.03-.16.04Z"/><path class="cls-1" d="m72.93,66.49c-.52.07-1.02-.04-1.44-.43-.19-.18-.22-.44-.08-.64.18-.29.66-.09.9.09.21.18.44.16.69.09.71-.17.79-.54,1.13-1.08.11-.16.26-.23.46-.18.23.06.32.17.25.39-.27.89-.82,1.52-1.9,1.76Z"/><path class="cls-1" d="m75.18,52.98c-.93,0,.03-1.41-1.39-1.95-.36-.01-1.1.26-1.17-.23-.07-.81,1.27-.77,1.77-.45.83.44,1.2,1.34,1.09,2.26,0,.18-.05.36-.3.37Z"/><path class="cls-1" d="m70.21,65.91c-.32.16-.68.24-1.04.22,0,0,0,0,0,0-.14,0-.28-.02-.41-.05-.73-.15-1.31-.59-1.44-1.38-.03-.16.01-.3.12-.4.04-.04.08-.07.13-.1.1-.05.18-.07.25-.07.35.03.44.65.63.9.02.02.05.03.07.05,0,0,0,0,0,0,.1.07.19.12.28.16,1.01.42,1.68-.7,2.09-.02.09.17.05.31-.18.43-.17.09-.34.18-.5.26Z"/><path class="cls-1" d="m75.52,64.47c-.42.06-.78-.59-.33-.78.26-.12.57-.15.83-.26.3-.19.55-.85.46-1.19-.06-.35-.38-.9.1-1.09.17-.07.33-.06.4.12.73,1.15.28,3.1-1.47,3.19Z"/><path class="cls-1" d="m75.52,81.22c-1.63,2.11-3.18,2.93-5.41,4.18-.46.27-.7.67-.6,1.26.29,2.63,1.04,5.62,1.75,8.49.54,2.17-.93,4.32-3.09,4.5h0c-2.18.18-3.99-1.73-3.78-3.98.27-2.91.53-5.83.53-8.76,0-.31-.13-.53-.38-.71-.73-.52-1.42-1.1-2.17-1.58-1.3-.73-2.69-1.3-4-2.01-.46-.27-.96-.83-.64-1.32.24-.45.59-.64,1.05-.44,1.84.79,3.63,1.7,5.42,2.61l.08-.1c-1.09-1.54-2.26-3.01-3.05-4.75-.27-.54-.73-.99-1.11-1.46-.43-.54-.46-.9-.09-1.46.21-.32.46-.38.79-.18.89.9,1.8,1.85,2.43,2.98.68,1.3,1.37,2.63,2.45,3.62l.09-.04c-.08-1.51-.16-3.01.06-4.51.1-1.1,0-2.25.26-3.33.15-.59,1.58-.96,1.68-.13-.06,2.63-.32,5.34.4,7.9.17-.14.28-.23.38-.42.73-1.49,1.8-2.72,2.88-3.94.36-.4.75-.78,1.16-1.12.33-.27.58-.2.85.15.41.55.47.78,0,1.26-.94.96-1.54,2.16-2.28,3.26-.49.76-1.2,1.36-1.62,2.16l.07.09c1.1-.46,2.1-1.15,3.16-1.7.57-.32,1.03-.76,1.41-1.3.53-.9,2.09-.1,1.35.81Z"/><path class="cls-1" d="m64.31,88.92c-.36.81-.94.9-1.7.94-.34.03-.65,0-.95-.09-.21-.06-.41-.15-.6-.26-.67-.39-1.2-1.07-1.52-1.85-.12-.24-.17-.48.11-.65.07-.04.14-.07.22-.09.21-.05.41.02.55.2.04.05.07.1.1.15.12.17.24.35.35.53h0c.04.06.08.12.12.18.1.14.29.29.52.4.39.19.87.31,1.15.22.31-.16.58-.43.89-.59.53-.36,1.05.41.75.91Z"/><path class="cls-1" d="m74.82,86.46c-.19.83-.58,1.49-1.09,1.94-.16.15-.34.27-.52.37-.67.37-1.45.45-2.22.19-.41-.28-.97-.56-.79-1.16.32-1.02,1.32.18,1.95.03.57-.13.89-.32,1.12-.61.05-.07.1-.14.15-.22h0c.14-.24.27-.54.42-.91.02-.04.04-.08.07-.11.16-.21.43-.26.64-.18.23.09.4.32.26.67Z"/><path class="cls-1" d="m71.6,70.7c.1.71-.87,1.18-1.17.35-.24-.48-.19-1-.76-1.2-.91-.48-1.34-.2-2.21.15-.27.1-.49,0-.66-.24-.59-.71,1.29-1.29,1.67-1.33,1.5-.12,2.98.67,3.12,2.27Z"/><path class="cls-1" d="m65.17,69.88c-.45,1.24-1.82-.77-3.26.91-.16.48-.15,1.56-.81,1.45-.34-.05-.59-.34-.61-.72-.05-1.08.67-2.06,1.77-2.44.55-.35,3.2-.11,2.91.81Z"/><path class="cls-1" d="m55.36,79.72c.14.32.5.54.7.82.54.6-.24,1.27-.79.93-2.02-1.2-1.15-4.26.57-5.11.2-.12.4-.13.55.09.73,1.11-1.51,1.07-1.03,3.26Z"/><path class="cls-1" d="m59.21,86c-.01.14-.05.26-.1.35-.31.51-1.22.28-1.71.11-.52-.23-.92-.62-1.2-1.19-.08-.16-.15-.34-.21-.53-.03-.1-.06-.19-.08-.3-.11-.44-.11-.91-.01-1.35.06-.28.14-.6.22-.91.06-.23.26-.3.48-.23.78.23.33,1.11.31,1.68-.03.24.1.64.29.98.16.29.36.53.53.62.08.03.18.06.29.07.44.07,1.01.04,1.15.46.02.06.04.14.04.23Z"/><path class="cls-1" d="m78.91,77.64c.03.75-.2,1.44-.8,1.98-.28.25-.65.26-.92.02-.39-.29-.03-.94.25-1.25.28-.28.29-.6.22-.96-.15-1.02-.65-1.2-1.37-1.74-.21-.18-.28-.4-.19-.67.11-.31.29-.42.58-.3,1.21.51,2.04,1.37,2.23,2.93Z"/><path class="cls-1" d="m60.13,72.6c-.12,1.31-2-.24-2.95,1.69-.07.51.21,1.59-.49,1.62-1.16-.01-.91-1.9-.39-2.56.74-1.11,2.06-1.5,3.34-1.23.26.04.5.12.48.48Z"/><path class="cls-1" d="m77.73,81.4c.18.48.24.99.17,1.5,0,0,0,0,0,0-.03.2-.07.39-.13.57-.31,1.01-1.02,1.76-2.15,1.84-.23.02-.42-.06-.55-.22-.05-.06-.09-.13-.13-.2-.06-.14-.08-.26-.06-.36.09-.49.98-.53,1.36-.77.03-.03.05-.06.08-.09,0,0,0,0,0,0,.11-.13.19-.26.26-.38.73-1.37-.75-2.48.26-2.95.26-.11.44-.03.59.32.11.25.21.51.3.75Z"/><path class="cls-1" d="m76.42,73.7c.03.61-.94,1.02-1.14.35-.13-.38-.13-.82-.25-1.2-.23-.45-1.12-.89-1.62-.82-.51.03-1.32.41-1.53-.29-.08-.25-.03-.47.23-.55,1.73-.88,4.42.03,4.31,2.52Z"/><path class="cls-1" d="m48.3,78.34c-.4,1.38-1.02,2.1-1.9,3.17-.18.23-.22.47-.06.75.66,1.27,1.63,2.62,2.55,3.93.7.99.38,2.36-.67,2.87h0c-1.06.52-2.35-.08-2.69-1.26-.44-1.52-.88-3.04-1.46-4.51-.06-.15-.17-.24-.33-.28-.47-.12-.93-.27-1.4-.37-.8-.11-1.61-.13-2.41-.23-.28-.04-.65-.23-.58-.54.03-.27.17-.44.44-.43,1.08.04,2.16.14,3.24.25l.02-.07c-.85-.56-1.73-1.07-2.47-1.79-.24-.22-.56-.35-.85-.52-.32-.19-.41-.36-.33-.72.04-.2.16-.28.36-.25.63.28,1.27.58,1.81,1.02.6.52,1.21,1.05,1.94,1.34l.04-.04c-.34-.74-.67-1.48-.86-2.28-.17-.57-.45-1.13-.52-1.73-.04-.33.61-.79.82-.4.49,1.34.89,2.75,1.76,3.9.06-.1.1-.17.11-.28.08-.89.37-1.72.67-2.55.1-.27.22-.54.36-.79.11-.2.25-.21.45-.09.32.19.39.3.25.63-.28.67-.35,1.39-.51,2.09-.1.48-.34.92-.39,1.41l.05.03c.46-.45.83-.99,1.26-1.48.22-.27.37-.58.45-.93.09-.56,1.03-.46.84.14Z"/><path class="cls-1" d="m44.17,84.42c-.02.48-.29.64-.67.81-.16.08-.33.13-.5.14-.12.01-.24,0-.35-.01-.42-.06-.81-.3-1.13-.63-.1-.1-.18-.21-.07-.35.03-.04.06-.06.09-.09.1-.06.21-.07.32,0,.03.02.05.03.08.05.1.06.19.13.28.2h0s.06.05.1.07c.08.05.2.09.34.1.23.02.5-.02.62-.11.12-.14.21-.33.33-.47.2-.28.61,0,.56.31Z"/><path class="cls-1" d="m48.98,81.12c.07.46,0,.87-.16,1.19-.05.11-.12.2-.19.29-.26.32-.64.51-1.08.53-.26-.06-.6-.09-.63-.43-.04-.58.7-.17.99-.37.26-.18.38-.34.44-.53.01-.05.02-.09.03-.14h0c.02-.15.03-.33.03-.54,0-.03,0-.05.01-.07.04-.14.17-.21.29-.22.13,0,.26.08.26.28Z"/><path class="cls-1" d="m44.25,73.82c.19.34-.21.77-.52.41-.22-.19-.29-.47-.62-.45-.55-.06-.71.16-1.08.51-.12.1-.25.1-.38.01-.44-.24.4-.9.58-1,.73-.36,1.63-.25,2.02.53Z"/><path class="cls-1" d="m40.86,74.67c.02.71-1.07-.03-1.46,1.1.01.27.23.81-.12.89-.18.04-.36-.05-.45-.24-.24-.53-.07-1.17.41-1.58.21-.28,1.59-.68,1.62-.17Z"/><path class="cls-1" d="m37.86,81.55c.13.13.36.17.51.28.39.19.13.69-.21.63-1.25-.2-1.42-1.92-.72-2.68.08-.1.17-.14.3-.06.59.41-.55.84.12,1.84Z"/><path class="cls-1" d="m41.04,83.96c.02.07.03.14.02.2-.05.32-.56.38-.84.39-.3-.01-.58-.13-.84-.36-.07-.07-.14-.14-.21-.22-.03-.04-.07-.09-.1-.13-.14-.2-.23-.43-.27-.68-.02-.15-.05-.33-.07-.5-.01-.13.07-.2.2-.21.44-.04.38.49.49.78.03.13.18.3.34.44.14.11.28.2.39.21.05,0,.1,0,.16-.02.23-.05.51-.18.67,0,.02.03.05.06.06.11Z"/><path class="cls-1" d="m49.3,75.87c.16.37.18.76-.02,1.15-.09.18-.28.26-.46.19-.25-.07-.2-.47-.12-.68.09-.19.03-.36-.08-.53-.27-.49-.56-.47-1.03-.61-.14-.05-.22-.14-.23-.3,0-.18.06-.27.23-.27.71.02,1.3.29,1.7,1.04Z"/><path class="cls-1" d="m38.86,77.03c.2.68-1.05.27-1.15,1.43.07.27.42.76.07.91-.59.22-.83-.78-.7-1.21.16-.7.74-1.16,1.44-1.28.14-.03.28-.04.34.15Z"/><path class="cls-1" d="m49.44,78c.18.2.32.45.38.72,0,0,0,0,0,0,.02.1.04.21.05.31.04.57-.16,1.09-.72,1.35-.11.06-.22.05-.32,0-.04-.02-.07-.05-.1-.08-.06-.06-.09-.12-.1-.17-.05-.26.39-.46.53-.65,0-.02.02-.04.02-.06,0,0,0,0,0,0,.03-.09.05-.17.06-.24.1-.83-.87-1.1-.45-1.54.11-.1.21-.1.36.04.1.11.21.22.3.32Z"/><path class="cls-1" d="m47.27,74.38c.13.3-.27.7-.51.4-.14-.17-.23-.39-.36-.56-.21-.18-.74-.23-.97-.09-.25.12-.58.47-.83.15-.09-.11-.11-.23,0-.32.7-.78,2.23-.85,2.66.42Z"/><path class="cls-1" d="m85.82,19.54c-.88.65-1.59.8-2.61,1.05-.21.06-.35.19-.38.43-.18,1.07-.22,2.34-.25,3.56-.03.92-.85,1.61-1.72,1.44h0c-.88-.17-1.39-1.13-1.05-2,.43-1.12.86-2.25,1.19-3.41.03-.12,0-.22-.07-.32-.23-.29-.44-.59-.68-.87-.43-.43-.92-.82-1.36-1.24-.15-.16-.29-.44-.11-.59.14-.15.31-.19.46-.06.64.52,1.25,1.08,1.86,1.64l.04-.03c-.26-.73-.56-1.44-.68-2.22-.04-.24-.18-.47-.28-.7-.11-.26-.08-.41.13-.59.12-.1.23-.1.33.01.25.46.51.93.63,1.45.12.59.25,1.19.56,1.71h.04c.14-.61.27-1.22.53-1.79.16-.43.25-.89.48-1.29.12-.22.73-.2.68.13-.32,1.03-.72,2.08-.72,3.17.08-.04.14-.06.2-.12.46-.51,1.02-.88,1.58-1.24.19-.12.38-.23.59-.31.16-.07.25-.01.32.15.1.26.1.36-.14.5-.48.28-.85.69-1.27,1.04-.28.24-.63.4-.89.68l.02.04c.49-.06.96-.22,1.44-.32.26-.06.49-.18.7-.36.31-.3.84.19.44.47Z"/><path class="cls-1" d="m80.52,21.34c-.23.28-.47.25-.78.18-.14-.03-.26-.07-.37-.14-.08-.05-.15-.1-.21-.17-.22-.23-.36-.56-.39-.9-.02-.11-.01-.21.12-.25.03,0,.07-.01.1-.01.09,0,.16.05.19.14,0,.02.02.05.02.07.03.08.05.17.08.25h0s.02.06.03.09c.02.07.08.15.16.22.13.12.31.22.43.22.14-.03.28-.11.42-.13.25-.08.37.28.2.44Z"/><path class="cls-1" d="m84.96,21.54c-.17.31-.4.53-.65.65-.08.04-.16.07-.25.09-.3.07-.62.01-.9-.18-.13-.16-.32-.33-.19-.55.24-.37.5.22.77.23.24.01.39-.03.51-.12.03-.02.06-.04.08-.07h0c.08-.08.17-.19.27-.31.01-.01.03-.03.04-.04.09-.06.2-.05.27,0,.08.06.12.17.03.29Z"/><path class="cls-1" d="m85.44,14.94c-.04.29-.48.37-.5,0-.04-.22.04-.42-.17-.56-.31-.29-.51-.23-.89-.19-.12,0-.2-.05-.23-.17-.16-.35.66-.37.81-.34.61.12,1.1.6.98,1.25Z"/><path class="cls-1" d="m82.99,13.89c-.32.44-.63-.51-1.39,0-.12.17-.23.6-.48.48-.13-.06-.2-.2-.16-.35.1-.43.49-.74.98-.77.26-.08,1.28.31,1.06.65Z"/><path class="cls-1" d="m78.01,16.69c.02.14.14.27.19.4.15.3-.24.48-.42.28-.66-.7.02-1.82.8-1.96.09-.03.17,0,.21.1.17.52-.72.25-.77,1.17Z"/><path class="cls-1" d="m78.83,19.61c-.02.06-.05.1-.08.13-.18.17-.51-.03-.69-.15-.18-.15-.29-.35-.34-.6-.01-.07-.02-.15-.03-.23,0-.04,0-.08,0-.13,0-.19.06-.37.15-.54.06-.1.12-.22.19-.34.05-.08.13-.09.22-.04.28.18,0,.48-.06.7-.04.09-.03.27,0,.42.03.13.08.25.14.31.03.02.07.04.11.06.17.08.39.13.41.31,0,.03,0,.06-.01.09Z"/><path class="cls-1" d="m87.56,18.5c-.07.3-.24.55-.54.69-.14.07-.29.03-.37-.1-.12-.16.09-.38.24-.47.14-.08.18-.2.19-.36.06-.42-.12-.55-.35-.84-.06-.09-.07-.19,0-.29.08-.11.16-.14.26-.05.42.34.66.77.55,1.41Z"/><path class="cls-1" d="m80.69,14.41c-.19.51-.76-.32-1.36.34-.08.19-.09.65-.37.59-.46-.13-.15-.86.13-1.06.42-.36.99-.37,1.46-.11.1.04.19.1.14.24Z"/><path class="cls-1" d="m86.67,19.86c.02.21-.02.42-.1.61,0,0,0,0,0,0-.03.07-.07.15-.11.21-.23.37-.6.59-1.06.49-.1-.02-.16-.07-.19-.15-.01-.03-.02-.06-.03-.09,0-.06,0-.11.02-.15.09-.18.45-.1.63-.15.01,0,.03-.02.04-.03,0,0,0,0,0,0,.06-.04.1-.08.15-.12.44-.46-.02-1.06.43-1.14.11-.01.18.04.2.19.01.11.03.23.03.33Z"/><path class="cls-1" d="m87.02,16.66c-.06.24-.49.3-.49.01,0-.17.04-.34.04-.5-.04-.2-.34-.48-.55-.5-.2-.04-.57.02-.57-.29,0-.11.04-.19.15-.19.78-.15,1.75.51,1.42,1.48Z"/><path class="cls-1" d="m25.46,17.26c-1.44,1.62-2.74,2.21-4.62,3.11-.39.2-.6.5-.56.99.1,2.15.54,4.63.97,6.99.32,1.8-.99,3.46-2.75,3.49h0c-1.78.03-3.15-1.62-2.86-3.44.38-2.35.74-4.71.9-7.09.01-.25-.08-.44-.27-.59-.56-.46-1.1-.97-1.68-1.4-1.02-.66-2.11-1.2-3.14-1.85-.36-.24-.74-.73-.45-1.11.22-.35.52-.49.88-.3,1.45.74,2.86,1.58,4.27,2.41l.07-.08c-.8-1.31-1.67-2.56-2.23-4.02-.19-.46-.54-.84-.83-1.25-.32-.46-.33-.75,0-1.2.19-.25.4-.29.65-.11.68.78,1.36,1.6,1.82,2.55.48,1.09.97,2.21,1.79,3.07l.07-.03c.02-1.23.04-2.45.29-3.66.14-.89.11-1.83.39-2.69.15-.47,1.34-.69,1.37-.02-.19,2.13-.55,4.32-.1,6.44.15-.11.24-.17.33-.32.68-1.17,1.61-2.11,2.55-3.05.31-.31.65-.59,1-.85.28-.2.48-.13.68.17.31.47.34.66-.07,1.02-.82.73-1.37,1.68-2.03,2.53-.44.59-1.05,1.04-1.44,1.67l.06.08c.92-.32,1.77-.82,2.66-1.21.48-.23.88-.56,1.21-.98.48-.7,1.7.03,1.05.73Z"/><path class="cls-1" d="m15.94,22.91c-.34.64-.81.68-1.43.67-.27,0-.53-.04-.77-.12-.17-.06-.33-.14-.48-.24-.53-.35-.92-.93-1.14-1.59-.08-.2-.11-.4.13-.52.06-.03.12-.05.18-.06.17-.03.34.04.44.19.03.04.05.08.08.12.09.15.17.3.26.45h0c.03.05.06.1.09.16.07.12.22.25.4.35.3.18.69.3.92.24.26-.11.49-.32.76-.43.45-.26.83.39.56.78Z"/><path class="cls-1" d="m24.61,21.48c-.2.67-.55,1.18-.99,1.52-.14.11-.29.2-.44.27-.56.26-1.2.28-1.82.03-.32-.25-.76-.51-.58-.98.31-.81,1.06.22,1.59.13.47-.07.74-.21.95-.44.05-.05.09-.11.13-.17h0c.13-.19.25-.43.39-.72.02-.03.04-.06.06-.09.14-.16.36-.18.53-.11.19.08.31.28.18.55Z"/><path class="cls-1" d="m22.84,8.5c.04.58-.77.91-.97.22-.17-.4-.1-.82-.55-1.02-.71-.44-1.07-.24-1.8,0-.23.06-.4-.02-.52-.23-.44-.61,1.12-.98,1.43-.99,1.22-.02,2.38.71,2.42,2.01Z"/><path class="cls-1" d="m17.67,7.49c-.43.98-1.44-.72-2.7.56-.16.38-.21,1.26-.74,1.13-.28-.06-.46-.3-.45-.62.01-.88.65-1.64,1.57-1.89.46-.26,2.6.08,2.32.81Z"/><path class="cls-1" d="m9.17,14.95c.09.26.38.46.53.71.41.51-.26,1.02-.69.72-1.57-1.08-.71-3.53.74-4.12.17-.09.33-.08.45.11.54.94-1.29.79-1.01,2.59Z"/><path class="cls-1" d="m11.96,20.27c-.02.12-.05.21-.1.28-.28.4-1,.16-1.39,0-.41-.21-.71-.56-.91-1.03-.06-.14-.11-.28-.15-.44-.02-.08-.04-.16-.05-.25-.07-.36-.04-.74.06-1.1.07-.22.14-.48.23-.73.06-.18.22-.23.41-.16.62.23.21.92.16,1.38-.04.2.05.53.18.82.11.24.26.45.4.53.07.03.14.05.23.07.35.08.81.08.91.43.02.05.02.12.02.19Z"/><path class="cls-1" d="m28.41,14.53c-.01.61-.24,1.16-.76,1.56-.24.19-.55.17-.75-.03-.3-.26.02-.76.27-1,.24-.21.26-.47.23-.77-.06-.84-.46-1.01-1.02-1.49-.16-.15-.21-.34-.12-.55.11-.25.26-.33.49-.21.96.48,1.59,1.22,1.65,2.5Z"/><path class="cls-1" d="m13.42,9.43c-.17,1.06-1.61-.3-2.49,1.22-.08.41.09,1.3-.48,1.29-.94-.07-.64-1.59-.18-2.1.66-.86,1.76-1.11,2.78-.82.21.04.4.12.37.41Z"/><path class="cls-1" d="m27.25,17.53c.12.4.14.82.05,1.22,0,0,0,0,0,0-.03.16-.08.31-.13.45-.3.81-.92,1.38-1.84,1.38-.19,0-.34-.07-.44-.21-.04-.05-.07-.11-.09-.17-.04-.12-.05-.22-.03-.3.1-.39.83-.38,1.15-.55.02-.02.05-.05.07-.07,0,0,0,0,0,0,.09-.1.17-.2.23-.3.67-1.07-.48-2.05.37-2.39.21-.07.36,0,.46.29.08.21.14.43.2.62Z"/><path class="cls-1" d="m26.6,11.2c-.01.5-.82.78-.95.23-.09-.32-.06-.67-.14-.99-.16-.38-.86-.79-1.27-.75-.41,0-1.09.26-1.23-.32-.05-.21,0-.38.21-.44,1.45-.62,3.59.27,3.37,2.28Z"/><path class="cls-1" d="m78.03,36.57c-1.73,1.14-3.08,1.36-5.03,1.72-.41.09-.68.31-.76.77-.45,2.01-.65,4.4-.84,6.69-.15,1.73-1.77,2.94-3.4,2.53h0c-1.65-.41-2.5-2.27-1.78-3.88.93-2.08,1.85-4.16,2.59-6.31.07-.23.04-.42-.1-.62-.4-.57-.77-1.16-1.2-1.71-.77-.86-1.65-1.63-2.44-2.49-.27-.31-.5-.85-.14-1.13.29-.27.6-.32.88-.06,1.15,1.05,2.24,2.17,3.33,3.28l.09-.05c-.41-1.41-.91-2.78-1.05-4.26-.06-.47-.29-.91-.45-1.36-.18-.5-.11-.78.3-1.1.24-.19.44-.17.62.06.43.89.86,1.81,1.04,2.8.17,1.13.35,2.27.89,3.28h.08c.32-1.14.64-2.26,1.17-3.32.35-.79.56-1.65,1.03-2.38.26-.4,1.4-.31,1.27.32-.71,1.92-1.58,3.85-1.69,5.91.16-.06.27-.1.38-.21.91-.91,2.01-1.55,3.11-2.18.36-.21.75-.39,1.14-.53.31-.12.48,0,.58.32.17.51.15.69-.32.92-.93.47-1.67,1.21-2.5,1.83-.55.43-1.22.7-1.74,1.18l.03.08c.92-.07,1.84-.31,2.75-.45.5-.09.95-.3,1.36-.6.62-.53,1.56.45.79.93Z"/><path class="cls-1" d="m67.85,39.42c-.47.51-.91.43-1.49.26-.25-.06-.48-.17-.68-.3-.14-.1-.27-.21-.38-.34-.4-.46-.61-1.09-.65-1.75-.03-.2,0-.4.25-.45.06-.01.12-.02.18-.01.16.02.3.12.35.29.01.04.03.09.04.13.05.16.08.32.13.48h0c.01.06.03.11.04.17.04.13.14.28.28.42.24.24.56.45.79.45.27-.04.53-.17.8-.21.48-.13.67.57.33.86Z"/><path class="cls-1" d="m76.2,40.26c-.35.57-.8.95-1.29,1.16-.16.07-.32.11-.48.14-.58.1-1.18-.04-1.68-.42-.23-.31-.57-.65-.29-1.05.49-.67.93.47,1.43.51.45.05.74-.01.98-.17.06-.04.11-.08.17-.12h0c.17-.14.33-.33.54-.56.03-.03.05-.05.08-.07.17-.11.38-.08.52.03.15.12.21.34.03.56Z"/><path class="cls-1" d="m77.79,27.85c-.11.55-.94.65-.95-.03-.06-.41.12-.78-.26-1.07-.55-.58-.93-.49-1.66-.45-.23,0-.36-.12-.43-.34-.26-.67,1.27-.63,1.56-.56,1.13.29,2.02,1.24,1.73,2.45Z"/><path class="cls-1" d="m73.27,25.63c-.64.8-1.14-1.02-2.63-.15-.24.31-.5,1.11-.96.86-.24-.12-.35-.39-.27-.68.23-.81,1.01-1.35,1.92-1.35.49-.12,2.38.72,1.94,1.33Z"/><path class="cls-1" d="m63.58,30.4c.02.27.23.52.31.78.25.58-.5.88-.82.49-1.18-1.39.22-3.43,1.7-3.61.18-.04.32,0,.38.21.26,1-1.38.41-1.58,2.14Z"/><path class="cls-1" d="m64.84,36c-.04.1-.1.18-.16.23-.35.3-.96-.1-1.29-.35-.32-.3-.52-.69-.59-1.18-.02-.14-.03-.29-.02-.44,0-.08,0-.16.01-.24.03-.35.15-.69.33-.99.12-.19.25-.41.39-.62.1-.15.26-.15.41-.05.51.37-.04.9-.19,1.32-.08.17-.09.5-.03.8.04.25.13.48.23.59.05.05.12.09.19.12.31.16.73.28.73.62,0,.05,0,.11-.03.18Z"/><path class="cls-1" d="m81.43,34.79c-.16.56-.51,1.01-1.09,1.25-.27.11-.55.02-.68-.22-.22-.31.21-.7.5-.86.28-.13.36-.37.4-.65.15-.79-.18-1.04-.57-1.63-.11-.18-.11-.36.03-.54.16-.2.32-.24.5-.07.77.68,1.16,1.52.9,2.72Z"/><path class="cls-1" d="m68.87,26.36c-.42.93-1.41-.68-2.59.5-.18.36-.24,1.22-.77,1.07-.85-.3-.2-1.63.35-1.98.83-.63,1.9-.59,2.77-.07.18.09.34.21.24.47Z"/><path class="cls-1" d="m79.61,37.26c.01.4-.07.79-.25,1.14,0,0,0,0,0,0-.07.14-.15.27-.24.39-.48.67-1.19,1.04-2.04.81-.18-.04-.29-.15-.35-.3-.02-.05-.04-.12-.04-.18,0-.12,0-.21.05-.28.19-.34.86-.14,1.2-.22.03-.02.06-.03.08-.05,0,0,0,0,0,0,.11-.07.21-.14.29-.21.88-.82.07-2.01.94-2.11.22-.01.33.09.35.38.02.21.03.43.03.62Z"/><path class="cls-1" d="m80.58,31.27c-.13.45-.95.52-.93-.03,0-.31.11-.64.12-.95-.06-.39-.6-.94-.98-1.01-.38-.1-1.07-.03-1.05-.6,0-.21.09-.35.31-.35,1.49-.21,3.24,1.14,2.54,2.93Z"/><path class="cls-1" d="m91.7,78.74c-1.49.72-2.59.75-4.18.83-.33.03-.57.18-.68.53-.57,1.55-.98,3.42-1.37,5.22-.3,1.36-1.72,2.15-2.97,1.65h0c-1.27-.5-1.75-2.07-1.01-3.27.96-1.55,1.91-3.11,2.72-4.74.08-.17.07-.33-.01-.5-.26-.49-.49-1.01-.77-1.49-.52-.77-1.14-1.47-1.67-2.23-.18-.28-.31-.73,0-.91.26-.19.51-.19.71.04.81.95,1.55,1.96,2.3,2.96l.07-.03c-.18-1.16-.43-2.3-.39-3.49,0-.38-.13-.75-.22-1.13-.09-.42,0-.63.36-.84.21-.12.36-.09.49.11.25.75.49,1.53.53,2.34.02.91.04,1.84.36,2.7h.06c.37-.86.75-1.72,1.28-2.5.36-.59.62-1.26,1.07-1.78.24-.29,1.15-.1.97.39-.76,1.45-1.66,2.89-1.97,4.52.13-.03.22-.05.33-.13.82-.63,1.76-1.02,2.7-1.4.31-.13.63-.23.96-.3.26-.06.38.05.43.32.08.42.05.56-.35.7-.79.28-1.46.78-2.18,1.19-.49.29-1.04.42-1.51.76l.02.07c.74.04,1.49-.06,2.23-.07.4-.02.79-.14,1.14-.33.54-.35,1.19.52.53.83Z"/><path class="cls-1" d="m83.32,79.93c-.43.35-.77.24-1.21.05-.2-.08-.36-.18-.51-.31-.1-.09-.19-.2-.26-.31-.27-.41-.37-.93-.33-1.45,0-.16.04-.31.24-.33.05,0,.1,0,.15.01.13.03.23.13.25.26,0,.04.01.07.02.11.02.13.03.26.05.39h0s.01.09.02.14c.02.11.08.24.18.37.16.22.4.41.58.44.22,0,.44-.08.66-.08.4-.05.47.52.17.72Z"/><path class="cls-1" d="m89.86,81.48c-.34.41-.74.67-1.15.78-.13.04-.26.06-.39.06-.47.02-.93-.15-1.29-.51-.15-.27-.39-.58-.12-.87.46-.48.69.47,1.08.56.35.09.59.07.8-.03.05-.02.1-.05.15-.08h0c.15-.1.3-.23.49-.39.02-.02.05-.03.07-.04.15-.07.31-.02.41.08.11.11.13.29-.04.44Z"/><path class="cls-1" d="m92.43,71.79c-.14.42-.81.42-.75-.13,0-.33.17-.61-.09-.88-.37-.52-.69-.48-1.27-.53-.18-.02-.28-.14-.3-.31-.13-.56,1.08-.36,1.3-.28.87.35,1.47,1.2,1.11,2.13Z"/><path class="cls-1" d="m89.07,69.55c-.59.57-.8-.93-2.07-.4-.22.22-.52.83-.86.58-.18-.12-.23-.35-.14-.57.27-.62.94-.96,1.67-.87.4-.04,1.81.82,1.4,1.26Z"/><path class="cls-1" d="m80.88,72.32c-.01.21.13.44.16.65.14.48-.49.64-.7.3-.79-1.23.54-2.7,1.73-2.69.15-.01.26.04.28.21.1.82-1.14.18-1.48,1.53Z"/><path class="cls-1" d="m81.28,76.9c-.05.08-.1.13-.15.17-.31.2-.76-.18-.98-.41-.23-.27-.34-.6-.34-1,0-.11,0-.23.03-.35,0-.06.02-.12.03-.19.06-.28.19-.54.37-.76.11-.14.24-.3.38-.45.1-.11.23-.1.33,0,.37.34-.12.71-.29,1.03-.08.13-.12.39-.11.63,0,.2.05.4.12.49.04.04.09.08.14.12.23.16.55.3.52.57,0,.04-.02.09-.04.14Z"/><path class="cls-1" d="m94.59,77.69c-.19.43-.51.75-1,.88-.23.06-.44-.04-.52-.24-.14-.27.24-.53.49-.63.23-.08.32-.25.39-.47.2-.61-.03-.85-.28-1.35-.07-.16-.05-.3.08-.43.15-.14.28-.16.41,0,.54.62.76,1.33.43,2.25Z"/><path class="cls-1" d="m85.51,69.67c-.43.7-1.05-.69-2.11.13-.18.27-.32.94-.72.77-.64-.33.02-1.31.49-1.54.72-.41,1.57-.27,2.21.24.13.09.25.21.14.4Z"/><path class="cls-1" d="m92.88,79.46c-.03.32-.14.62-.32.88,0,0,0,0,0,0-.07.1-.15.2-.23.28-.45.48-1.06.7-1.71.43-.14-.05-.22-.15-.25-.28-.01-.05-.02-.1-.01-.15,0-.1.03-.17.07-.22.18-.25.7-.02.97-.05.02,0,.05-.02.07-.03,0,0,0,0,0,0,.1-.04.18-.09.25-.14.79-.56.27-1.59.97-1.57.17.01.25.1.24.34,0,.17-.03.34-.04.5Z"/><path class="cls-1" d="m94.29,74.8c-.15.35-.81.31-.74-.12.03-.25.16-.49.2-.74,0-.32-.38-.81-.67-.9-.29-.12-.85-.14-.77-.59.03-.16.11-.27.28-.25,1.21-.01,2.46,1.24,1.71,2.6Z"/><path class="cls-1" d="m60.04,98.23c.02.55-.05.73-.57.83-.92.17-1.75.59-2.6.94h-7.18c-.17-.53-.33-1.05-.54-1.56-.52-1.07-1.18-2.08-1.71-3.14-.18-.38-.26-.99.18-1.16.36-.19.68-.15.89.19.84,1.35,1.61,2.76,2.37,4.17t.1-.03c-.01-1.5-.12-3,.15-4.5.08-.48-.03-.98-.06-1.47-.04-.55.1-.8.61-1,.28-.12.47-.04.6.23.17,1,.34,2.04.24,3.07-.15,1.16-.3,2.34-.04,3.49.03,0,.04,0,.07.01.64-1.03,1.27-2.05,2.09-2.94.57-.68,1.02-1.48,1.69-2.06.36-.32,1.47.09,1.16.67-1.24,1.7-2.64,3.36-3.33,5.37.18-.02.29-.03.44-.1,1.16-.65,2.42-.97,3.68-1.28.42-.11.85-.17,1.27-.21.34-.03.47.14.49.48Z"/><path class="cls-1" d="m46.73,99.2v.14c0,.17-.01.34-.01.51v.15h-.89c-.01-.28.02-.57.08-.85.03-.2.1-.39.37-.37.06,0,.12.02.18.04.16.06.26.2.27.38Z"/><path class="cls-1" d="m61.53,93.5c-.26.51-1.11.38-.93-.3.06-.42.33-.74.05-1.13-.38-.73-.78-.74-1.51-.91-.22-.06-.33-.22-.33-.45-.07-.73,1.43-.26,1.7-.11,1.04.6,1.65,1.79,1.02,2.91Z"/><path class="cls-1" d="m57.69,90.05c-.86.61-.84-1.33-2.55-.89-.32.24-.81.95-1.19.58-.2-.19-.23-.49-.07-.75.45-.73,1.38-1.05,2.28-.8.52.02,2.15,1.38,1.54,1.85Z"/><path class="cls-1" d="m46.78,92.04c-.05.27.08.58.09.86.09.64-.73.73-.94.25-.78-1.7,1.18-3.32,2.69-3.09.19,0,.32.1.32.31-.02,1.06-1.48.01-2.16,1.67Z"/><path class="cls-1" d="m46.44,97.92c-.07.09-.15.15-.23.19-.43.2-.92-.37-1.17-.7-.24-.38-.32-.83-.25-1.33.02-.14.05-.29.1-.44.02-.08.05-.15.08-.23.13-.34.34-.64.61-.89.17-.15.36-.33.56-.5.14-.12.3-.08.42.07.4.51-.29.88-.56,1.25-.13.15-.22.47-.26.78-.03.26,0,.51.07.65.04.06.09.12.16.18.26.24.64.48.55.82-.01.05-.04.11-.08.17Z"/><path class="cls-1" d="m63.55,100h-.91c0-.35-.15-.66-.29-1.1-.06-.21,0-.39.18-.52.21-.15.38-.15.52.07.31.48.5,1,.5,1.55Z"/><path class="cls-1" d="m53.14,89.54c-.67.81-1.2-1.06-2.7-.23-.28.3-.58,1.14-1.06.84-.76-.54.26-1.66.9-1.86.99-.39,2.04-.05,2.76.71.15.14.28.31.1.53Z"/><path class="cls-1" d="m63.33,97.67c-.26.41-1.08.24-.91-.29.09-.31.29-.6.39-.9.05-.4-.33-1.1-.69-1.27-.35-.21-1.05-.33-.87-.89.06-.2.19-.32.4-.26,1.53.21,2.89,2.03,1.68,3.61Z"/><path class="cls-1" d="m89.55,48.17c-1.83-.39-2.83-1.12-4.31-2.15-.32-.21-.64-.24-.98,0-1.58.99-3.24,2.38-4.84,3.71-1.21,1.01-3.02.73-3.8-.58h0c-.78-1.32-.13-3.06,1.37-3.62,1.93-.72,3.86-1.45,5.71-2.35.19-.1.3-.24.33-.46.11-.62.26-1.24.34-1.86.06-1.05,0-2.1.05-3.15.03-.37.23-.87.64-.81.36.01.59.18.6.53.06,1.41.03,2.82,0,4.24l.09.02c.64-1.16,1.21-2.35,2.08-3.39.26-.34.4-.76.59-1.15.21-.44.43-.57.9-.51.27.03.39.18.36.44-.3.84-.62,1.71-1.14,2.45-.62.83-1.24,1.67-1.55,2.66l.05.04c.93-.51,1.86-1.02,2.88-1.35.73-.27,1.42-.69,2.19-.85.42-.09,1.09.71.6,1.02-1.69.76-3.48,1.43-4.88,2.67.14.06.23.11.38.11,1.17,0,2.28.31,3.38.62.37.1.72.24,1.07.39.27.13.3.31.16.58-.22.43-.35.54-.8.39-.9-.3-1.84-.31-2.77-.45-.63-.08-1.23-.35-1.87-.37l-.03.07c.63.55,1.37.98,2.04,1.49.37.26.8.42,1.25.49.73.06.7,1.29-.1,1.1Z"/><path class="cls-1" d="m81.23,43.42c-.63.02-.86-.32-1.12-.79-.12-.2-.2-.41-.24-.63-.03-.15-.03-.31-.02-.46.04-.55.31-1.09.71-1.53.11-.15.25-.25.45-.13.05.03.09.07.12.11.09.12.11.27.04.41-.02.04-.04.07-.06.11-.07.13-.15.26-.23.39h0s-.05.09-.08.13c-.06.11-.09.27-.09.45,0,.31.07.65.21.8.2.15.45.24.65.38.39.23.06.79-.34.76Z"/><path class="cls-1" d="m86.01,49.33c-.59.13-1.12.09-1.57-.09-.14-.06-.27-.13-.4-.22-.44-.31-.73-.78-.8-1.35.05-.35.06-.79.49-.86.74-.11.29.89.58,1.25.26.32.48.47.73.52.06.01.12.02.19.03h0c.2.02.43,0,.71,0,.03,0,.06,0,.09,0,.18.04.29.2.31.35.02.17-.08.35-.34.37Z"/><path class="cls-1" d="m95.01,42.46c-.42.28-1.02-.19-.58-.63.23-.3.58-.42.53-.85.03-.72-.28-.91-.77-1.35-.15-.14-.15-.31-.05-.49.27-.59,1.21.42,1.35.65.54.91.49,2.09-.48,2.67Z"/><path class="cls-1" d="m93.56,38.14c-.92.09-.07-1.39-1.57-1.79-.35.04-1.03.38-1.17-.07-.08-.23.03-.48.27-.61.67-.36,1.51-.21,2.09.38.39.24,1.05,1.99.38,2.09Z"/><path class="cls-1" d="m84.33,34.93c-.16.18-.19.48-.31.7-.21.53-.88.24-.83-.22.14-1.64,2.35-2.04,3.41-1.2.14.09.2.21.11.38-.48.8-1.14-.63-2.38.34Z"/><path class="cls-1" d="m81.52,39.3c-.09.04-.18.05-.25.04-.42-.04-.55-.68-.59-1.05-.01-.4.11-.77.39-1.13.08-.1.17-.2.27-.3.05-.05.1-.1.16-.14.25-.21.54-.35.85-.42.2-.05.42-.1.65-.14.16-.03.27.07.3.24.09.56-.6.55-.97.71-.16.06-.38.26-.53.49-.13.19-.23.39-.23.53,0,.06.02.13.04.2.09.3.28.65.06.87-.03.03-.08.07-.13.09Z"/><path class="cls-1" d="m92.85,49.22c-.47.25-.98.32-1.5.1-.24-.1-.36-.34-.29-.58.06-.34.58-.31.87-.22.26.1.47,0,.67-.15.6-.41.56-.78.69-1.4.05-.19.17-.3.37-.32.23-.02.36.05.37.28.05.92-.24,1.71-1.18,2.31Z"/><path class="cls-1" d="m90.29,35.77c-.87.33-.46-1.34-1.97-1.35-.34.11-.94.62-1.18.19-.35-.74.93-1.16,1.5-1.03.93.13,1.59.85,1.81,1.74.06.17.08.36-.15.45Z"/><path class="cls-1" d="m90.1,49.62c-.25.26-.56.46-.9.56,0,0,0,0,0,0-.13.04-.27.07-.4.09-.74.12-1.43-.1-1.82-.8-.09-.14-.09-.28-.03-.42.02-.05.05-.1.09-.14.07-.08.14-.13.21-.15.33-.09.64.46.9.63.03,0,.05.02.08.02,0,0,0,0,0,0,.11.03.22.04.32.05,1.09.05,1.34-1.24,1.95-.74.15.13.15.27-.02.47-.13.15-.26.29-.38.42Z"/><path class="cls-1" d="m94.58,46.44c-.38.2-.93-.28-.57-.62.2-.2.48-.33.69-.53.21-.29.22-.98.02-1.27-.18-.31-.66-.71-.28-1.06.14-.13.29-.16.42-.03,1.08.83,1.33,2.81-.28,3.5Z"/><path class="cls-1" d="m88.8,62.48c-1.45.31-2.4.1-3.8-.17-.29-.05-.54.03-.71.32-.82,1.22-1.58,2.77-2.31,4.24-.55,1.12-1.95,1.5-2.93.8h0c-.99-.71-1.08-2.17-.18-3.05,1.16-1.14,2.32-2.29,3.37-3.53.11-.13.13-.27.09-.44-.12-.48-.21-.98-.35-1.45-.29-.78-.67-1.52-.98-2.29-.1-.28-.11-.7.2-.79.26-.11.48-.06.61.19.5,1,.93,2.03,1.37,3.06h.07c.09-1.06.12-2.1.41-3.13.08-.33.04-.68.05-1.02,0-.38.13-.55.49-.65.21-.06.34,0,.4.2.06.7.1,1.43-.04,2.14-.18.8-.36,1.61-.26,2.42h.05c.51-.66,1.01-1.32,1.65-1.89.44-.43.8-.96,1.31-1.32.27-.2,1.02.16.76.55-.97,1.09-2.06,2.15-2.67,3.5.12,0,.2,0,.31-.04.85-.37,1.74-.51,2.64-.64.3-.04.6-.06.9-.06.24,0,.32.13.31.37-.02.38-.08.5-.45.53-.75.07-1.43.37-2.14.57-.48.14-1,.15-1.47.34v.06c.63.2,1.31.27,1.96.42.36.07.71.05,1.06-.05.55-.19.92.71.28.83Z"/><path class="cls-1" d="m81.27,61.73c-.44.22-.72.05-1.06-.21-.15-.11-.28-.24-.37-.38-.07-.1-.12-.21-.16-.33-.15-.41-.13-.89.02-1.33.04-.14.1-.26.28-.24.05,0,.09.02.12.04.1.06.17.16.16.28,0,.03,0,.07,0,.1-.01.12-.03.23-.04.35h0s0,.08-.01.12c0,.1.02.23.08.36.1.22.26.44.41.51.19.04.4.03.59.07.36.04.3.55,0,.66Z"/><path class="cls-1" d="m86.62,64.46c-.38.29-.78.43-1.16.44-.12,0-.24,0-.36-.03-.42-.08-.78-.33-1.01-.72-.07-.27-.21-.59.08-.78.5-.32.5.55.82.71.29.15.49.18.7.14.05,0,.1-.02.14-.04h0c.15-.05.31-.14.51-.23.02-.01.05-.02.07-.02.14-.03.28.05.34.15.07.12.05.28-.13.38Z"/><path class="cls-1" d="m90.91,56.6c-.21.34-.8.19-.62-.27.07-.29.28-.49.11-.78-.21-.53-.49-.57-.99-.73-.15-.06-.21-.18-.2-.34,0-.51,1.01-.08,1.19.03.68.49,1.02,1.36.51,2.09Z"/><path class="cls-1" d="m88.48,53.94c-.64.36-.5-.98-1.71-.79-.24.14-.62.61-.87.32-.13-.14-.13-.35,0-.52.36-.48,1.02-.64,1.63-.4.36.05,1.4,1.1.95,1.39Z"/><path class="cls-1" d="m80.77,54.6c-.06.18.02.41,0,.6.02.45-.56.45-.67.11-.43-1.23,1.04-2.23,2.08-1.97.13.02.21.09.2.24-.09.74-1.03-.09-1.61,1.01Z"/><path class="cls-1" d="m80.15,58.66c-.06.06-.11.09-.17.11-.31.11-.62-.32-.77-.57-.14-.28-.17-.59-.08-.94.02-.1.06-.2.1-.3.02-.05.04-.1.07-.16.11-.23.28-.42.48-.58.13-.1.27-.2.42-.31.11-.07.22-.03.29.08.25.38-.26.59-.47.83-.1.09-.19.31-.23.52-.04.18-.04.35,0,.46.02.04.06.09.1.13.16.19.41.38.33.61-.01.04-.04.07-.07.11Z"/><path class="cls-1" d="m91.53,62.18c-.26.33-.6.54-1.05.55-.21,0-.37-.13-.4-.32-.06-.26.32-.41.56-.44.22-.02.34-.15.44-.33.31-.49.15-.74.04-1.23-.03-.15.02-.27.16-.35.16-.09.27-.08.36.08.33.65.38,1.32-.11,2.05Z"/><path class="cls-1" d="m85.35,53.29c-.52.51-.76-.82-1.86-.34-.21.19-.48.75-.79.52-.49-.42.29-1.14.75-1.23.71-.21,1.42.1,1.87.68.1.11.17.23.03.38Z"/><path class="cls-1" d="m89.67,63.35c-.1.27-.25.51-.47.7,0,0,0,0,0,0-.08.07-.17.14-.26.2-.49.32-1.07.39-1.58.01-.11-.07-.16-.18-.16-.29,0-.04,0-.09.02-.13.02-.08.06-.14.1-.17.21-.18.61.13.85.16.02,0,.04,0,.07-.01,0,0,0,0,0,0,.09-.02.17-.04.25-.07.8-.32.57-1.32,1.17-1.16.15.05.2.14.14.35-.04.15-.09.29-.14.42Z"/><path class="cls-1" d="m91.89,59.61c-.21.27-.77.1-.61-.26.08-.21.24-.39.33-.6.06-.28-.16-.78-.39-.93-.23-.17-.71-.3-.54-.67.06-.14.15-.21.3-.15,1.05.25,1.87,1.6.93,2.62Z"/><path class="cls-1" d="m95.66,90.12c-.98.69-1.76.84-2.88,1.08-.23.06-.39.19-.43.46-.22,1.17-.3,2.56-.37,3.88-.06,1.01-.97,1.73-1.92,1.53h0c-.96-.21-1.49-1.27-1.1-2.22.5-1.22,1-2.44,1.39-3.7.04-.13.01-.24-.07-.35-.24-.32-.47-.66-.72-.97-.46-.49-.98-.92-1.45-1.4-.16-.18-.3-.49-.1-.65.16-.16.34-.2.51-.05.69.59,1.34,1.21,1.99,1.84l.05-.03c-.26-.81-.57-1.59-.68-2.45-.04-.27-.18-.52-.29-.78-.11-.29-.08-.45.16-.64.13-.11.25-.1.36.02.26.51.53,1.03.65,1.6.12.65.24,1.31.57,1.88h.04c.17-.67.33-1.32.62-1.94.19-.46.29-.97.55-1.4.14-.23.81-.2.74.17-.38,1.12-.85,2.25-.88,3.45.09-.04.15-.06.22-.13.51-.54,1.14-.93,1.76-1.31.21-.13.43-.24.65-.33.18-.07.28,0,.34.18.11.29.1.4-.17.54-.53.29-.95.73-1.42,1.1-.31.26-.7.42-.99.72l.02.05c.53-.05,1.06-.21,1.59-.31.29-.06.54-.19.78-.37.35-.32.91.23.47.53Z"/><path class="cls-1" d="m89.81,91.94c-.26.3-.52.26-.86.18-.15-.03-.28-.09-.4-.16-.08-.05-.16-.12-.22-.19-.24-.26-.37-.62-.41-1-.02-.12,0-.23.13-.27.04,0,.07-.01.11,0,.1,0,.18.06.21.16,0,.03.02.05.03.08.03.09.05.18.08.27h0s.02.06.03.09c.02.08.09.16.17.24.14.13.33.25.47.25.15-.03.31-.11.46-.14.28-.08.4.32.2.49Z"/><path class="cls-1" d="m94.66,92.28c-.19.33-.45.56-.73.69-.09.04-.18.07-.27.09-.33.07-.68,0-.98-.22-.14-.18-.34-.37-.19-.6.27-.4.54.25.84.27.26.02.43-.02.56-.12.03-.02.06-.05.09-.08h0c.09-.09.19-.2.3-.34.01-.02.03-.03.05-.04.1-.07.22-.05.3,0,.09.07.13.19.02.32Z"/><path class="cls-1" d="m95.36,85.07c-.05.32-.53.39-.55,0-.04-.24.05-.45-.17-.62-.33-.33-.55-.27-.97-.23-.13,0-.21-.06-.25-.19-.16-.38.73-.38.89-.35.66.15,1.19.68,1.04,1.39Z"/><path class="cls-1" d="m92.71,83.87c-.36.47-.68-.57-1.52-.04-.13.18-.27.65-.54.52-.14-.07-.21-.22-.17-.39.12-.47.56-.8,1.09-.82.28-.08,1.39.38,1.14.73Z"/><path class="cls-1" d="m87.18,86.8c.02.15.14.3.19.45.15.33-.27.52-.46.3-.71-.78.07-1.99.92-2.12.1-.03.19,0,.23.11.17.57-.79.26-.88,1.26Z"/><path class="cls-1" d="m88.01,90.01c-.02.06-.05.11-.09.14-.2.18-.56-.04-.75-.18-.19-.17-.31-.39-.36-.67-.01-.08-.02-.17-.02-.26,0-.05,0-.09,0-.14.01-.2.07-.4.17-.58.06-.11.14-.24.22-.36.06-.09.15-.09.24-.04.3.2,0,.52-.09.77-.05.1-.04.29,0,.46.03.14.08.28.15.34.03.03.07.05.11.07.18.09.43.15.44.35,0,.03,0,.07-.01.1Z"/><path class="cls-1" d="m97.59,89.03c-.09.33-.28.59-.61.74-.15.07-.32.02-.4-.11-.13-.18.11-.41.27-.51.16-.08.2-.22.22-.38.07-.46-.12-.6-.36-.93-.07-.1-.07-.21,0-.31.09-.12.18-.14.29-.05.45.38.7.86.57,1.56Z"/><path class="cls-1" d="m90.18,84.37c-.22.55-.83-.37-1.49.34-.1.21-.12.71-.42.63-.5-.16-.14-.94.17-1.15.47-.38,1.09-.37,1.6-.09.11.05.2.12.15.27Z"/><path class="cls-1" d="m96.58,90.49c.01.23-.03.46-.13.67,0,0,0,0,0,0-.04.08-.08.16-.13.23-.27.39-.67.62-1.17.51-.1-.02-.17-.08-.21-.17-.01-.03-.02-.07-.03-.1,0-.07,0-.12.02-.16.1-.2.49-.1.69-.15.02,0,.03-.02.05-.03,0,0,0,0,0,0,.06-.04.12-.08.16-.13.5-.49,0-1.17.51-1.24.12-.01.19.04.21.21.01.12.02.25.03.36Z"/><path class="cls-1" d="m97.04,87c-.07.27-.54.32-.54,0,0-.18.05-.37.05-.55-.04-.22-.36-.53-.59-.57-.22-.05-.62,0-.62-.33,0-.12.05-.21.17-.21.86-.15,1.9.6,1.52,1.65Z"/><path class="cls-1" d="m77.02,95.31c.14,1.56.17,3.13.21,4.69h-1.6c.04-.25.07-.49.09-.74.02-1.19-.09-2.38-.09-3.57.01-.42.22-.99.69-.95.4,0,.67.18.7.57Z"/><path class="cls-1" d="m80.37,97.56c-.53.77-1.07,1.57-1.41,2.44h-1.57c.66-1.3,1.24-2.63,2.13-3.81.28-.39.42-.88.61-1.33.22-.51.46-.66,1-.62.3.03.44.18.42.49-.29.96-.62,1.96-1.18,2.83Z"/><path class="cls-1" d="m85.17,99.09c-.61.31-1.23.6-1.85.91h-3.34c.65-.38,1.32-.71,2.02-.97.82-.35,1.58-.86,2.44-1.07.47-.12,1.27.75.73,1.13Z"/><path class="cls-1" d="m73.22,98.84s-.04.08-.06.12c-.08.15-.16.3-.24.45-.03.05-.05.1-.08.15-.06.11-.08.27-.08.44h-.96c.07-.56.33-1.11.72-1.58.12-.17.27-.3.5-.17.05.04.1.08.14.12.11.13.14.3.06.47Z"/><path class="cls-1" d="m89.5,100h-1.34c.02-.06.06-.12.12-.18.25-.35.64-.51.56-.98,0-.82-.36-1.02-.93-1.5-.17-.15-.19-.34-.08-.55.27-.68,1.39.42,1.56.67.52.8.62,1.81.11,2.54Z"/><path class="cls-1" d="m87.13,95.69c-1.04.15-.14-1.57-1.87-1.95-.4.06-1.15.48-1.32-.03-.1-.26.01-.54.28-.7.74-.44,1.7-.3,2.39.33.45.25,1.28,2.21.53,2.35Z"/><path class="cls-1" d="m76.53,92.5c-.17.21-.19.56-.31.8-.21.61-.98.31-.95-.2.08-1.87,2.56-2.41,3.8-1.52.16.09.24.23.14.43-.5.93-1.32-.66-2.68.5Z"/><path class="cls-1" d="m73.56,97.57c-.11.05-.2.07-.28.06-.48-.02-.65-.75-.72-1.16-.04-.45.09-.88.38-1.29.08-.12.18-.23.29-.35.06-.06.11-.11.18-.17.27-.24.59-.42.94-.52.22-.06.47-.13.73-.19.18-.04.31.07.35.25.13.63-.66.65-1.06.85-.18.07-.41.31-.58.57-.14.22-.24.45-.24.61,0,.07.03.15.06.23.12.33.35.72.11.98-.04.04-.09.08-.15.11Z"/><path class="cls-1" d="m83.32,93.16c-.97.41-.58-1.49-2.3-1.43-.38.14-1.04.75-1.32.27-.43-.82.99-1.36,1.65-1.24,1.06.1,1.83.88,2.13,1.89.07.19.11.4-.15.52Z"/><path class="cls-1" d="m13.3,0h2.23c-.45.12-.9.24-1.36.33-.32.06-.78,0-.87-.33Z"/><path class="cls-1" d="m26.38,4.77c-.45.44-1.03.66-1.61.66-.76,0-1.52-.36-2-1.06-1.03-1.49-2.08-2.97-3.23-4.37h4.86c.53.4,1.08.8,1.62,1.19,1.2.87,1.37,2.58.36,3.58Z"/><path class="cls-1" d="m19.86.99c.16.56-.09.85-.46,1.2-.16.16-.33.28-.52.36-.13.06-.27.1-.41.13-.51.09-1.06-.03-1.56-.29-.16-.07-.29-.17-.22-.38.02-.05.04-.1.07-.14.09-.11.22-.17.36-.13.04,0,.08.02.11.03.14.04.27.08.4.12h0s.09.03.14.04c.11.03.27.02.43-.02.28-.07.57-.22.68-.38.09-.21.11-.46.2-.68.12-.41.71-.24.77.14Z"/><path class="cls-1" d="m12.13,1.07c-.84.14-1.49-.38-1.81-1.07h.94s.11.1.17.15c.2.1.48.06.7.12.53.07.42.74,0,.8Z"/><path class="cls-1" d="m16.05,1.69c.06.08.09.15.1.22.06.39-.5.66-.82.78-.36.11-.73.08-1.11-.09-.11-.05-.22-.11-.33-.18-.06-.04-.11-.07-.17-.11-.24-.18-.44-.41-.58-.68-.09-.17-.18-.36-.28-.56-.07-.14,0-.26.15-.32.49-.21.64.42.87.72.09.14.32.28.57.37.2.08.41.12.53.09.06-.02.12-.05.18-.09.25-.15.52-.41.78-.26.04.02.08.06.12.1Z"/><path class="cls-1" d="m59.32,2.19c-2.02.64-3.42.48-5.45.29-.43-.03-.76.12-.97.55-1,1.85-1.87,4.16-2.71,6.36-.63,1.68-2.57,2.41-4.07,1.55-.89-.51-1.37-1.45-1.37-2.42,0-.67.23-1.35.7-1.91,1.5-1.79,3-3.59,4.33-5.51.14-.2.15-.4.07-.63-.06-.16-.11-.31-.16-.47h7.18c-.13.06-.26.11-.39.16-.66.27-1.4.34-2.05.68q.01.05.01.09c.93.2,1.91.21,2.85.33.52.05,1.02-.03,1.51-.21.76-.35,1.42.88.52,1.14Z"/><path class="cls-1" d="m48.47,2.15c-.61.37-1.03.17-1.55-.15-.23-.14-.42-.3-.58-.49-.11-.14-.2-.29-.28-.45-.15-.32-.23-.68-.23-1.06h.89v.03c0,.14.06.32.16.5.16.3.43.59.65.66.27.04.58-.01.85.02.52.01.51.75.09.94Z"/><path class="cls-1" d="m56.48,5.32c-.5.46-1.06.72-1.6.78-.17.02-.34.02-.51,0-.6-.06-1.15-.37-1.54-.89-.14-.37-.38-.81,0-1.12.67-.53.78.72,1.27.91.43.18.73.19,1.02.11.07-.02.13-.05.2-.08h0c.21-.09.42-.24.69-.4.03-.02.06-.03.1-.04.2-.06.4.03.5.17.12.16.11.39-.13.56Z"/><path class="cls-1" d="m63.55,0c.01.43-.11.9-.37,1.39-.32.5-.79.85-1.43.93-.3.03-.55-.13-.61-.41-.13-.37.4-.63.73-.71.32-.05.46-.26.58-.53.14-.26.19-.48.19-.67h.91Z"/><path class="cls-1" d="m60.68,3.32c-.1.39-.29.76-.57,1.06,0,0,0,0,0,0-.11.12-.22.22-.34.32-.66.52-1.47.7-2.25.23-.16-.09-.25-.23-.26-.4,0-.06,0-.12,0-.19.02-.12.07-.21.12-.26.28-.28.89.1,1.24.12.03,0,.06-.02.09-.02,0,0,0,0,0,0,.13-.04.24-.08.34-.13,1.1-.56.63-1.97,1.52-1.82.22.05.3.18.24.48-.04.22-.1.43-.14.62Z"/><path class="cls-1" d="m85.49,4.03c-.23.5-.37.63-.88.48-1.03-.3-2.1-.27-3.15-.38-.72-.06-1.41-.33-2.13-.33t-.04.09c.74.59,1.6,1.04,2.39,1.58.43.28.92.44,1.44.5.83.04.85,1.43-.06,1.26-2.1-.36-3.26-1.14-4.98-2.23-.37-.22-.73-.24-1.11.05-1.74,1.19-3.56,2.84-5.31,4.42-1.32,1.2-3.38.97-4.32-.48-.3-.46-.44-.97-.44-1.47,0-1.11.67-2.2,1.82-2.68,2.15-.91,4.29-1.83,6.35-2.93.21-.11.32-.29.35-.53.07-.46.15-.92.21-1.38h1.6v.1c.05.02.05.01.1.02.02-.04.04-.08.06-.12h1.57c-.08.21-.15.42-.21.64t.06.04c.39-.23.78-.47,1.17-.68h3.34c-1.27.64-2.52,1.35-3.55,2.34.16.07.27.11.43.11,1.33-.05,2.59.24,3.86.54.41.1.83.23,1.22.39.31.13.36.34.21.65Z"/><path class="cls-1" d="m73.43,2.25c-.71.05-.99-.32-1.3-.84-.15-.23-.25-.46-.3-.7-.04-.18-.05-.35-.05-.52,0-.06,0-.12.02-.19h.96s-.01.05-.01.08c.01.35.12.73.28.89.23.16.52.25.75.41.45.24.11.89-.35.87Z"/><path class="cls-1" d="m79.11,8.71c-.66.18-1.27.15-1.78-.03-.16-.06-.32-.14-.46-.23-.51-.33-.86-.85-.97-1.49.05-.39.03-.89.51-.99.84-.16.37,1,.72,1.38.3.35.56.51.85.56.07.01.14.02.21.02h0c.23.01.48-.02.8-.04.04,0,.07,0,.11,0,.21.04.34.21.37.38.03.2-.08.4-.37.43Z"/><path class="cls-1" d="m89.5,0c-.13.19-.31.37-.53.51-.41.3-1-.06-.81-.51h1.34Z"/><path class="cls-1" d="m86.85,8.26c-.52.31-1.09.4-1.69.18-.28-.1-.43-.36-.36-.64.06-.38.65-.38.98-.29.3.1.53-.02.76-.21.66-.49.6-.91.71-1.62.04-.21.17-.35.4-.38.26-.04.41.04.43.3.1,1.04-.19,1.95-1.22,2.67Z"/><path class="cls-1" d="m83.75,8.85c-.27.3-.61.54-.99.68,0,0,0,0,0,0-.15.05-.3.09-.45.12-.83.16-1.62-.05-2.1-.82-.1-.16-.11-.32-.05-.47.02-.06.05-.11.09-.17.08-.1.15-.15.23-.18.37-.12.74.49,1.05.67.03,0,.06.02.09.02,0,0,0,0,0,0,.13.03.25.04.37.04,1.23,0,1.46-1.46,2.17-.93.17.14.19.3,0,.53-.14.17-.28.34-.41.49Z"/><path class="cls-1" d="m88.68,5.03c-.42.25-1.07-.27-.68-.67.22-.24.53-.4.75-.63.23-.33.21-1.12-.03-1.44-.21-.34-.78-.77-.37-1.18.15-.15.32-.2.47-.05,1.27.88,1.64,3.12-.15,3.97Z"/><path class="cls-1" d="m50.2,21.19c1.2,1.29,1.58,2.39,2.16,3.98.13.33.36.53.76.53,1.75.09,3.79-.09,5.74-.25,1.48-.12,2.72,1.07,2.61,2.49h0c-.11,1.44-1.55,2.43-3.01,2.05-1.88-.49-3.76-.96-5.67-1.27-.2-.03-.36.03-.5.17-.42.42-.87.81-1.27,1.25-.61.77-1.14,1.62-1.74,2.4-.22.27-.65.54-.93.28-.27-.2-.35-.46-.18-.73.71-1.12,1.5-2.19,2.28-3.27l-.06-.06c-1.12.55-2.2,1.16-3.43,1.49-.38.12-.72.37-1.08.57-.4.23-.63.21-.97-.1-.19-.17-.2-.34-.04-.53.68-.49,1.4-.98,2.21-1.28.92-.3,1.86-.62,2.63-1.22l-.02-.06c-.99-.11-1.98-.22-2.94-.51-.71-.18-1.47-.23-2.15-.52-.37-.16-.46-1.14.09-1.11,1.71.32,3.46.78,5.21.58-.07-.13-.12-.21-.23-.29-.9-.64-1.59-1.47-2.27-2.3-.23-.28-.43-.57-.61-.88-.14-.24-.07-.4.19-.54.4-.21.56-.22.82.13.53.72,1.25,1.23,1.89,1.84.44.4.76.93,1.24,1.29l.07-.04c-.19-.77-.53-1.5-.77-2.25-.15-.41-.39-.75-.7-1.06-.53-.44.16-1.37.67-.8Z"/><path class="cls-1" d="m54.05,29.33c.49.32.49.71.43,1.21-.02.22-.07.43-.16.61-.06.13-.14.25-.23.37-.33.4-.83.67-1.37.8-.17.05-.33.06-.41-.14-.02-.05-.03-.1-.03-.15,0-.14.06-.27.19-.34.04-.02.07-.04.11-.05.13-.06.26-.12.38-.17h0s.09-.04.13-.06c.11-.05.22-.16.32-.3.17-.23.29-.54.27-.73-.07-.22-.22-.42-.29-.65-.18-.39.38-.64.67-.4Z"/><path class="cls-1" d="m53.56,22.2c.53.21.91.54,1.16.92.08.12.14.25.19.38.17.47.14,1-.11,1.47-.23.24-.47.58-.84.4-.63-.31.26-.85.22-1.28-.02-.39-.12-.62-.28-.8-.04-.04-.08-.08-.13-.12h0c-.14-.12-.33-.23-.55-.37-.03-.02-.05-.04-.07-.06-.12-.13-.12-.31-.05-.44.08-.14.25-.23.46-.1Z"/><path class="cls-1" d="m42.91,22.64c.48.01.68.69.11.8-.34.11-.67.02-.86.37-.41.54-.28.85-.14,1.46.03.19-.05.32-.22.41-.52.31-.71-.98-.69-1.23.08-.99.75-1.88,1.81-1.8Z"/><path class="cls-1" d="m41.69,26.75c.76.42-.69,1.11.25,2.23.29.16,1,.26.86.69-.07.22-.28.35-.54.32-.71-.08-1.28-.66-1.41-1.42-.17-.39.27-2.1.84-1.82Z"/><path class="cls-1" d="m47.09,34.21c.22-.06.41-.27.61-.37.45-.29.81.29.53.62-1,1.19-2.91.3-3.28-.91-.06-.14-.04-.27.12-.35.8-.36.54,1.1,2.02,1.02Z"/><path class="cls-1" d="m51.61,32.36c.09.02.17.06.22.1.3.25.05.82-.11,1.13-.2.31-.5.53-.9.66-.11.04-.24.06-.37.08-.07.01-.13.02-.2.02-.3.03-.6-.02-.88-.14-.18-.07-.38-.15-.57-.24-.14-.06-.17-.2-.1-.34.23-.48.76-.1,1.13-.03.16.05.43,0,.67-.09.2-.07.39-.18.46-.28.03-.05.06-.11.08-.18.09-.28.13-.65.42-.7.04,0,.1,0,.15,0Z"/><path class="cls-1" d="m48.22,18.59c.49.06.92.28,1.21.73.13.21.1.45-.09.6-.23.23-.62-.08-.79-.3-.15-.21-.36-.25-.6-.24-.68-.01-.85.3-1.29.71-.14.12-.29.14-.46.05-.19-.11-.25-.23-.13-.41.46-.74,1.11-1.19,2.15-1.14Z"/><path class="cls-1" d="m42.94,30.34c.84.22-.37,1.28.79,2.11.33.1,1.06.03,1.01.49-.13.76-1.34.4-1.71-.01-.65-.6-.77-1.51-.45-2.32.05-.16.13-.32.36-.27Z"/><path class="cls-1" d="m50.56,19.77c.33-.07.67-.05,1,.05,0,0,0,0,0,0,.13.04.25.09.36.14.63.31,1.05.85.98,1.6,0,.16-.08.27-.21.34-.04.03-.09.05-.15.06-.1.03-.18.02-.24,0-.31-.11-.24-.7-.36-.97-.02-.02-.03-.04-.05-.06,0,0,0,0,0,0-.07-.08-.15-.15-.22-.21-.82-.62-1.7.23-1.9-.49-.04-.18.03-.29.27-.35.18-.04.36-.08.52-.11Z"/><path class="cls-1" d="m45.39,19.81c.4.05.57.72.11.79-.26.04-.55,0-.81.03-.32.1-.7.64-.71.97-.03.34.13.91-.35.97-.17.03-.31-.03-.34-.21-.39-1.22.49-2.89,2.1-2.55Z"/></g></svg>